<svg width="24" height="24" viewBox="0 0 24 24" fill="none" xmlns="http://www.w3.org/2000/svg">
<g clip-path="url(#clip0)">
<path d="M20.4844 0.000976562H3.51562C1.57709 0.000976562 0 1.57806 0 3.5166V20.4854C0 22.4239 1.57709 24.001 3.51562 24.001H20.4844C22.4229 24.001 24 22.4239 24 20.4854V3.5166C24 1.57806 22.4229 0.000976562 20.4844 0.000976562ZM22.5938 20.4854C22.5938 21.6484 21.6475 22.5947 20.4844 22.5947H3.51562C2.35254 22.5947 1.40625 21.6484 1.40625 20.4854V3.5166C1.40625 2.35352 2.35254 1.40723 3.51562 1.40723H20.4844C21.6475 1.40723 22.5938 2.35352 22.5938 3.5166V20.4854Z" fill="white"/>
<path d="M8.84375 17.001H6.86133V9.60449H8.84375V17.001ZM6.74512 7.69043C6.74512 7.39421 6.8431 7.15039 7.03906 6.95898C7.23958 6.76758 7.51074 6.67188 7.85254 6.67188C8.18978 6.67188 8.45866 6.76758 8.65918 6.95898C8.8597 7.15039 8.95996 7.39421 8.95996 7.69043C8.95996 7.99121 8.85742 8.2373 8.65234 8.42871C8.45182 8.62012 8.18522 8.71582 7.85254 8.71582C7.51986 8.71582 7.25098 8.62012 7.0459 8.42871C6.84538 8.2373 6.74512 7.99121 6.74512 7.69043Z" fill="white"/>
<path d="M12.2959 9.60449L12.3574 10.459C12.8861 9.79818 13.5947 9.46777 14.4834 9.46777C15.2673 9.46777 15.8506 9.69792 16.2334 10.1582C16.6162 10.6185 16.8122 11.3066 16.8213 12.2227V17.001H14.8457V12.2705C14.8457 11.8512 14.7546 11.5482 14.5723 11.3613C14.39 11.1699 14.0869 11.0742 13.6631 11.0742C13.1071 11.0742 12.6901 11.3112 12.4121 11.7852V17.001H10.4365V9.60449H12.2959Z" fill="white"/>
</g>
<defs>
<clipPath id="clip0">
<rect width="24" height="24" fill="white" transform="translate(0 0.000976562)"/>
</clipPath>
</defs>
</svg>
