<svg width="24" height="20" viewBox="0 0 24 20" fill="none" xmlns="http://www.w3.org/2000/svg">
<path d="M24 2.82744C22.4903 2.89702 22.5233 2.89134 22.3526 2.90562L23.2467 0.352217C23.2467 0.352217 20.4558 1.37889 19.7483 1.56254C17.8901 -0.107561 15.1282 -0.181353 13.1536 1.03227C11.5366 2.02635 10.6686 3.73344 10.9581 5.72874C7.81109 5.29204 5.15954 3.80028 3.0661 1.28551L2.40399 0.490278L1.90924 1.39885C1.28394 2.54692 1.07629 3.8596 1.3244 5.09501C1.42621 5.60185 1.59924 6.08525 1.83893 6.53789L1.27093 6.31779L1.20355 7.26683C1.13525 8.23088 1.45624 9.35625 2.06232 10.2769C2.23297 10.5362 2.4527 10.8209 2.7312 11.1018L2.43768 11.0567L2.79584 12.1442C3.2666 13.573 4.24438 14.6784 5.5133 15.2929C4.24603 15.8307 3.22229 16.1738 1.53955 16.7273L0 17.2334L1.422 18.0109C1.96417 18.3074 3.88 19.2974 5.77295 19.5944C9.98071 20.2543 14.7182 19.7169 17.9075 16.8445C20.5939 14.4252 21.4753 10.9837 21.2922 7.40233C21.2646 6.86015 21.4131 6.3427 21.7104 5.94554C22.3061 5.15031 23.9963 2.83275 24 2.82744ZM20.586 5.10325C20.0922 5.76262 19.8448 6.60472 19.8891 7.4741C20.0738 11.0866 19.0909 13.8881 16.9675 15.8005C14.4869 18.0345 10.4859 18.9114 5.99066 18.2063C5.17657 18.0787 4.3352 17.7928 3.63885 17.5074C5.04968 17.022 6.13916 16.5893 7.89862 15.7565L10.3548 14.594L7.643 14.4204C6.34405 14.3373 5.26245 13.7077 4.59759 12.6857C4.95062 12.6651 5.29101 12.608 5.62994 12.5135L8.21631 11.7932L5.60834 11.1545C4.34106 10.8442 3.61871 10.0859 3.23584 9.50438C2.98444 9.12224 2.82019 8.73076 2.72168 8.36986C2.98315 8.43999 3.28802 8.48997 3.77966 8.53868L6.19354 8.77745L4.28101 7.28551C2.90295 6.21068 2.35071 4.59587 2.75555 3.0435C7.05633 7.50432 12.106 7.16905 12.6143 7.28697C12.5024 6.20024 12.4995 6.19768 12.4702 6.09422C11.8193 3.79313 13.2458 2.62474 13.8893 2.22923C15.2333 1.40324 17.3666 1.27873 18.8443 2.63957C19.1634 2.93327 19.595 3.04881 19.999 2.94847C20.3615 2.85838 20.6591 2.76298 20.9504 2.65916L20.3439 4.39097L21.1181 4.39152C20.972 4.58745 20.7967 4.822 20.586 5.10325Z" fill="white"/>
</svg>
