<svg width="24" height="24" viewBox="0 0 24 24" fill="none" xmlns="http://www.w3.org/2000/svg">
<path d="M20.245 3.29497L19.6975 2.77636L19.6795 2.80761C17.5197 0.99817 14.8251 0 12 0C10.4658 0 8.97242 0.30407 7.54756 0.876761L7.53132 0.860527L7.15153 1.02817C3.61798 2.59189 1.03934 5.77448 0.254495 9.54124L0.157125 10.0088L0.180575 10.0196C0.0706171 10.6758 0.000305176 11.3386 0.000305176 11.9997C0.000305176 15.5134 1.51889 18.797 4.17808 21.0848L4.17267 21.0974L4.53446 21.3853C6.68225 23.0956 9.26391 24 12 24C13.4447 24 14.8701 23.7338 16.2523 23.2079L16.6321 23.0607V23.0505C20.5743 21.452 23.2798 17.9401 23.8621 13.6829L23.8945 13.6943L23.954 12.9155C23.9775 12.6127 23.9997 12.3098 23.9997 12.0009C23.9997 8.68126 22.6662 5.59001 20.245 3.29497ZM22.6415 11.9997V12.0598C21.4397 11.6505 19.8694 11.4432 18.4025 11.4432C17.1297 11.4432 15.8815 11.6012 14.6447 11.9137C14.4062 11.2749 14.1676 10.6511 13.8959 10.0472L13.935 10.0298L13.9218 10.0015C16.3556 8.78401 18.3634 6.96794 19.8603 4.69454C21.7101 6.69453 22.6415 9.26121 22.6415 11.9997ZM19.0443 3.84547C17.6501 6.03353 15.7144 7.77568 13.396 8.93008C12.0938 6.3376 10.434 3.95064 8.44903 1.8167C9.59323 1.41526 10.7825 1.20193 12 1.20193C14.6009 1.20189 17.0786 2.14359 19.0443 3.84547ZM7.26212 2.30284C9.2981 4.42537 10.9928 6.81896 12.3088 9.42826C10.637 10.0941 8.87505 10.4312 7.06318 10.4312C5.14739 10.4312 3.29226 10.0556 1.5405 9.31525C2.32115 6.26666 4.42027 3.69343 7.26212 2.30284ZM1.2022 11.9997C1.2022 11.5069 1.24906 11.0136 1.31698 10.522C3.14505 11.2593 5.07409 11.6331 7.06322 11.6331C9.05297 11.6331 10.985 11.2545 12.8179 10.5142C13.0739 11.0796 13.3143 11.662 13.5402 12.2605C9.6906 13.5603 6.5266 16.3109 4.70273 19.9441C2.4702 17.8986 1.2022 15.0453 1.2022 11.9997ZM5.65518 20.729C7.3198 17.2489 10.3017 14.6108 13.9494 13.3873C14.8971 16.2406 15.3989 19.2086 15.4422 22.2248C14.319 22.6051 13.1628 22.798 12 22.798C9.69476 22.7981 7.51093 22.0842 5.65518 20.729ZM16.6134 21.7554C16.5287 18.7922 16.0209 15.8764 15.0943 13.0664C17.6014 12.4528 20.2402 12.5333 22.6968 13.2959C22.2551 17.0645 19.9835 20.2146 16.6134 21.7554Z" fill="white"/>
</svg>
