<svg width="91" height="75" viewBox="0 0 91 75" fill="none" xmlns="http://www.w3.org/2000/svg">
<path d="M39.6903 57.8341C39.6903 62.5192 38.003 66.5515 34.6283 69.9309C31.3304 73.3103 27.1121 75 21.9735 75C15.4543 75 10.1622 72.1582 6.09735 66.4747C2.03245 60.7143 0 54.3011 0 47.235C0 40.0922 1.9941 32.5269 5.9823 24.5392C9.9705 16.4747 14.0354 10.3687 18.177 6.2212C22.3953 2.07373 25.0796 0 26.2301 0C26.9971 0 28.6077 0.921659 31.0619 2.76498L32.2124 3.45622C34.1298 4.7619 35.0885 5.79877 35.0885 6.56682C35.0885 7.10445 34.0531 8.83257 31.9823 11.7512C26.3068 19.9693 23.469 26.4593 23.469 31.2212C23.469 34.831 26.1534 38.5945 31.5221 42.5115C36.9676 46.3518 39.6903 51.4593 39.6903 57.8341ZM91 57.8341C91 62.5192 89.3127 66.5515 85.9381 69.9309C82.5634 73.3103 78.3451 75 73.2832 75C66.764 75 61.472 72.1582 57.4071 66.4747C53.3422 60.7143 51.3097 54.3011 51.3097 47.235C51.3097 36.9432 54.9911 26.4977 62.354 15.8986C69.7935 5.29954 74.8555 0 77.5398 0C78.3068 0 79.9174 0.921659 82.3717 2.76498L83.5221 3.45622C85.4395 4.7619 86.3982 5.79877 86.3982 6.56682C86.3982 7.10445 85.3628 8.83257 83.292 11.7512C77.5398 19.9693 74.6637 26.4593 74.6637 31.2212C74.6637 34.831 77.3864 38.5945 82.8319 42.5115C88.2773 46.3518 91 51.4593 91 57.8341Z" fill="#F1592A"/>
</svg>
