<svg xmlns="http://www.w3.org/2000/svg" viewBox="0 0 300 300">
    <defs>
        <style>
            .a {
            fill: #272727;
            }

            .b {
            fill: #74bb11;
            }

            .b, .c, .d {
            fill-rule: evenodd;
            }

            .c {
            fill: #009cd9;
            }

            .d {
            fill: #eb2084;
            }
        </style>
    </defs>
    <rect class="a" width="300" height="300"/>
    <path class="b"
          d="M238.05,43.23c-1.76-3.74-5.53-6-10.08-6h-17.6c-5.11,0-8.93,2.06-10.94,5.77L173.34,81.14l22.84,31.22L236,55.18c4.38-5.32,2.86-10.13,2-12"/>
    <path class="c"
          d="M100.55,42.59l0,0a13,13,0,0,0-11-5.3H72.3a10.77,10.77,0,0,0-9.9,5.55c-1.94,3.62-1.53,8,1.15,12l63.77,88.4L54,245.46c-2.56,3.85-2.92,8.12-1,11.73a10.79,10.79,0,0,0,9.91,5.55h17.6A11.77,11.77,0,0,0,91,256.69L173.08,143.6Z"/>
    <path class="d"
          d="M246.8,246.35l-51.15-70.21-22.51,31,40.46,54,1.05.46a12.88,12.88,0,0,0,5.11,1.12H237a11.06,11.06,0,0,0,9.69-5.07,11.43,11.43,0,0,0,.15-11.32"/>
</svg>
