<svg xmlns="http://www.w3.org/2000/svg" viewBox="0 0 94.47 85.48">
  <defs>
    <style>
      .b223915d-2d1b-4908-8a6e-50b1c74c64b0 {
        fill: #ea6c00;
      }

      .b157820a-017b-4f8a-9df7-336f1d46aa30, .b223915d-2d1b-4908-8a6e-50b1c74c64b0, .ea5937a6-10c1-4328-86e1-65a20b6ccf18, .ebd2479a-18ff-4177-8341-e40a82fff93d {
        fill-rule: evenodd;
      }

      .b157820a-017b-4f8a-9df7-336f1d46aa30 {
        fill: #fdad00;
      }

      .ea5937a6-10c1-4328-86e1-65a20b6ccf18 {
        fill: #fdd231;
      }

      .ebd2479a-18ff-4177-8341-e40a82fff93d {
        fill: #feeeb7;
      }
    </style>
  </defs>
  <title>technology-icon-sketch</title>
  <path id="a5818883-c103-4a3f-ad13-c63a1fb33ac9" class="b223915d-2d1b-4908-8a6e-50b1c74c64b0" d="M19.3,30.9l28.1,55L.17,30.9Z" transform="translate(-0.17 -0.42)"/>
  <path id="b1d9e86f-e6f5-4819-9a8f-ffd7883bacc2" class="b223915d-2d1b-4908-8a6e-50b1c74c64b0" d="M75.51,30.9l-28.1,55,47.23-55Z" transform="translate(-0.17 -0.42)"/>
  <path id="bf6de284-ce3d-4d50-9f35-4f8b387b4bb8" class="b157820a-017b-4f8a-9df7-336f1d46aa30" d="M19.3,30.9H75.5l-28.1,55Z" transform="translate(-0.17 -0.42)"/>
  <path id="a7e20063-df3a-401d-8117-c4c074757324" class="ea5937a6-10c1-4328-86e1-65a20b6ccf18" d="M47.4.42,20.78,3.23,19.3,30.9Z" transform="translate(-0.17 -0.42)"/>
  <path id="f5d7ee2d-779f-4808-88b6-d74d1bdee3eb" class="ea5937a6-10c1-4328-86e1-65a20b6ccf18" d="M47.4.42,74,3.23,75.5,30.9Z" transform="translate(-0.17 -0.42)"/>
  <path id="a6fdc8d4-d6ab-418b-a768-7cb5d0b51a7f" class="b157820a-017b-4f8a-9df7-336f1d46aa30" d="M94.64,30.9,74,3.23,75.51,30.9Z" transform="translate(-0.17 -0.42)"/>
  <path id="e73f6ccf-bf57-41b9-b50d-f7ed6e6f7134" class="b157820a-017b-4f8a-9df7-336f1d46aa30" d="M.17,30.9,20.78,3.23,19.3,30.9Z" transform="translate(-0.17 -0.42)"/>
  <path id="f09da52e-bce7-42c5-8adf-24c5e5ce13d4" class="ebd2479a-18ff-4177-8341-e40a82fff93d" d="M47.4.42,19.3,30.9H75.5Z" transform="translate(-0.17 -0.42)"/>
</svg>
