<svg id="ed1000c7-1167-45e1-870e-dc7424204523" xmlns="http://www.w3.org/2000/svg" xmlns:xlink="http://www.w3.org/1999/xlink" viewBox="0 0 300 183.7">
  <defs>
    <style>
      .bb65ed99-6221-417b-9eed-cc9f9599ce87 {
        fill: #fff;
      }

      .b0fc354a-49c3-42a6-aaf5-0267575fc340 {
        fill: #539e43;
      }

      .f74c41a8-443c-46cc-bbf0-9b89447051a2 {
        fill: #333;
      }

      .e732f91a-c7ce-4551-a58d-fe399ef989f7 {
        fill: url(#e4d040ec-5056-4f19-9dde-97e6698561e3);
      }

      .be8608a3-6cf3-4f67-9502-14122d48f164 {
        mask: url(#a7dd720e-44f6-4f3f-b09b-3a404410bb6a);
      }

      .fb7fbdf0-9039-44e4-ad36-b377b64e2204 {
        fill: none;
      }

      .b6ecdc3f-9814-42f0-87b3-d75e137eb81a {
        fill: url(#eb75901c-a4eb-4425-8451-c6c9e94a3ae1);
      }

      .a2bc00a4-0b37-49fe-9965-05357fbf4f26 {
        mask: url(#a82ca516-2373-4f52-aef7-64e777c48d50);
      }

      .ae66b151-2679-4d59-8ddb-1ded255ff56f, .b2ab04a2-ca74-47e9-b384-abf5ec4acd5a, .b51c8e80-4dc6-4aa1-90e0-de38e6ecf77c, .b6774365-fb50-407e-9999-fcf2847e210a, .f045c220-dbac-419b-8ef5-c5ddc4ee21a9 {
        fill-rule: evenodd;
      }

      .b6774365-fb50-407e-9999-fcf2847e210a {
        fill: url(#b83dbb13-1aa6-474c-a702-6b336eafbeef);
      }

      .f045c220-dbac-419b-8ef5-c5ddc4ee21a9 {
        fill: url(#b24fdb09-01af-4cb9-9c75-56b539ae0406);
      }

      .b51c8e80-4dc6-4aa1-90e0-de38e6ecf77c {
        fill: url(#bbd902fc-0112-4117-bdcd-70840e8606c5);
      }

      .ae66b151-2679-4d59-8ddb-1ded255ff56f {
        fill: url(#e2b044e0-7811-40a1-8d03-b17bf5c990cf);
      }

      .b2ab04a2-ca74-47e9-b384-abf5ec4acd5a {
        fill: url(#a2cc1400-0e30-4934-8036-b549ea822013);
      }
    </style>
    <linearGradient id="e4d040ec-5056-4f19-9dde-97e6698561e3" x1="-105.02" y1="348.13" x2="-105.26" y2="347.71" gradientTransform="matrix(108.99, 0, 0, -124.18, 11568.89, 43286.9)" gradientUnits="userSpaceOnUse">
      <stop offset="0" stop-color="#41873f"/>
      <stop offset="0.33" stop-color="#418b3d"/>
      <stop offset="0.64" stop-color="#419637"/>
      <stop offset="0.93" stop-color="#3fa92d"/>
      <stop offset="1" stop-color="#3fae2a"/>
    </linearGradient>
    <mask id="a7dd720e-44f6-4f3f-b09b-3a404410bb6a" x="78.53" y="41.98" width="64.42" height="72.96" maskUnits="userSpaceOnUse">
      <g id="ac8d2158-b21d-4904-9059-511f63480289" data-name="c">
        <path id="ab3d0806-5714-4b41-9d4a-4b8446e5fc1e" data-name="a" class="bb65ed99-6221-417b-9eed-cc9f9599ce87" d="M112.5,42.45a3.5,3.5,0,0,0-3.46,0L80.49,58.93a3.39,3.39,0,0,0-1.69,3v33a3.54,3.54,0,0,0,1.69,3L109,114.4a3.5,3.5,0,0,0,3.46,0l28.55-16.48a3.39,3.39,0,0,0,1.69-3v-33a3.52,3.52,0,0,0-1.69-3Z"/>
      </g>
    </mask>
    <linearGradient id="eb75901c-a4eb-4425-8451-c6c9e94a3ae1" x1="-105.16" y1="347.91" x2="-104.48" y2="348.34" gradientTransform="matrix(106.45, 0, 0, -124.13, 11300.67, 43269.32)" gradientUnits="userSpaceOnUse">
      <stop offset="0.14" stop-color="#41873f"/>
      <stop offset="0.4" stop-color="#54a044"/>
      <stop offset="0.71" stop-color="#66b848"/>
      <stop offset="0.91" stop-color="#6cc04a"/>
    </linearGradient>
    <mask id="a82ca516-2373-4f52-aef7-64e777c48d50" x="78.53" y="36.42" width="65.3" height="79.41" maskUnits="userSpaceOnUse">
      <g id="e1b6eb6a-9312-4682-a35b-f09e9bd3c2c5" data-name="c">
        <path id="ef81788f-2902-444e-9d0c-a5794d2f0650" data-name="a" class="bb65ed99-6221-417b-9eed-cc9f9599ce87" d="M112.5,42.45a3.5,3.5,0,0,0-3.46,0L80.49,58.93a3.39,3.39,0,0,0-1.69,3v33a3.54,3.54,0,0,0,1.69,3L109,114.4a3.5,3.5,0,0,0,3.46,0l28.55-16.48a3.39,3.39,0,0,0,1.69-3v-33a3.52,3.52,0,0,0-1.69-3Z"/>
      </g>
    </mask>
    <linearGradient id="b83dbb13-1aa6-474c-a702-6b336eafbeef" x1="-99.53" y1="-45.94" x2="-42.37" y2="-45.94" gradientTransform="matrix(0.92, 0, 0, -0.35, 175.72, 20.58)" gradientUnits="userSpaceOnUse">
      <stop offset="0.09" stop-color="#6cc04a"/>
      <stop offset="0.29" stop-color="#66b848"/>
      <stop offset="0.6" stop-color="#54a044"/>
      <stop offset="0.86" stop-color="#41873f"/>
    </linearGradient>
    <linearGradient id="b24fdb09-01af-4cb9-9c75-56b539ae0406" x1="-105.45" y1="347.94" x2="-104.83" y2="347.94" gradientTransform="matrix(106.33, 0, 0, -124.23, 11290.34, 43304.04)" xlink:href="#b83dbb13-1aa6-474c-a702-6b336eafbeef"/>
    <linearGradient id="bbd902fc-0112-4117-bdcd-70840e8606c5" x1="-149.94" y1="232.39" x2="-92.78" y2="232.39" gradientTransform="matrix(0.35, 0, 0, -0.81, 175.88, 285.28)" xlink:href="#b83dbb13-1aa6-474c-a702-6b336eafbeef"/>
    <linearGradient id="e2b044e0-7811-40a1-8d03-b17bf5c990cf" x1="-106" y1="346.23" x2="-104.8" y2="346.23" gradientTransform="matrix(55.01, 0, 0, -34.33, 5909.14, 11990.6)" xlink:href="#b83dbb13-1aa6-474c-a702-6b336eafbeef"/>
    <linearGradient id="a2cc1400-0e30-4934-8036-b549ea822013" x1="-104.62" y1="347.77" x2="-105.36" y2="345.35" gradientTransform="matrix(55.01, 0, 0, -34.33, 5909.14, 11990.6)" xlink:href="#e4d040ec-5056-4f19-9dde-97e6698561e3"/>
  </defs>
  <title>technology-icon-nodejs2</title>
  <g>
    <path class="b0fc354a-49c3-42a6-aaf5-0267575fc340" d="M148.37,183.7a6,6,0,0,1-2.85-.74l-9-5.36c-1.36-.75-.68-1-.28-1.15a16.64,16.64,0,0,0,4.07-1.83.63.63,0,0,1,.68.06l6.92,4.14a.83.83,0,0,0,.81,0l27.06-15.66a.79.79,0,0,0,.41-.75V131.15a.79.79,0,0,0-.41-.75l-27.06-15.59a.83.83,0,0,0-.81,0L120.84,130.4a.87.87,0,0,0-.41.75v31.26a.87.87,0,0,0,.41.75l7.39,4.27c4,2,6.51-.34,6.51-2.71V133.86a.82.82,0,0,1,.82-.81H139a.83.83,0,0,1,.82.81v30.86c0,5.35-2.92,8.47-8,8.47-1.56,0-2.78,0-6.24-1.69l-7.12-4.07a5.72,5.72,0,0,1-2.85-5V131.22a5.69,5.69,0,0,1,2.85-5l27.05-15.67a6.06,6.06,0,0,1,5.7,0l27.06,15.67a5.72,5.72,0,0,1,2.85,5v31.26a5.74,5.74,0,0,1-2.85,5l-27.06,15.66a6.89,6.89,0,0,1-2.85.61Zm8.34-21.49c-11.86,0-14.3-5.43-14.3-10a.81.81,0,0,1,.81-.81h3.53a.69.69,0,0,1,.74.67c.54,3.6,2.1,5.36,9.29,5.36,5.7,0,8.14-1.29,8.14-4.34,0-1.76-.68-3.05-9.56-3.93-7.39-.75-12-2.37-12-8.27,0-5.5,4.62-8.75,12.35-8.75,8.68,0,13,3,13.49,9.49a1.13,1.13,0,0,1-.2.61.83.83,0,0,1-.55.27h-3.52a.8.8,0,0,1-.75-.61c-.81-3.73-2.91-5-8.47-5-6.24,0-7,2.17-7,3.8,0,2,.88,2.58,9.29,3.66s12.28,2.65,12.28,8.48S165.33,162.21,156.71,162.21Z"/>
    <path class="f74c41a8-443c-46cc-bbf0-9b89447051a2" d="M64.42,61.44a3.47,3.47,0,0,0-1.76-3L33.91,41.91a4.29,4.29,0,0,0-1.56-.48h-.28a3.2,3.2,0,0,0-1.55.48L1.76,58.45a3.47,3.47,0,0,0-1.76,3l.07,44.48A1.68,1.68,0,0,0,1,107.41a1.53,1.53,0,0,0,1.69,0l17.09-9.76a3.44,3.44,0,0,0,1.77-3V73.85a3.45,3.45,0,0,1,1.76-3l7.26-4.2a3.27,3.27,0,0,1,1.76-.48,2.88,2.88,0,0,1,1.69.48l7.26,4.2a3.45,3.45,0,0,1,1.76,3V94.67a3.44,3.44,0,0,0,1.77,3l17.08,9.76a1.66,1.66,0,0,0,1.77,0,1.68,1.68,0,0,0,.88-1.49ZM202.62.2a1.86,1.86,0,0,0-1.69,0A1.77,1.77,0,0,0,200,1.7V45.77a1.3,1.3,0,0,1-.61,1.09,1.32,1.32,0,0,1-1.22,0L191,42.72a3.5,3.5,0,0,0-3.46,0L158.82,59.34a3.44,3.44,0,0,0-1.77,3V95.48a3.44,3.44,0,0,0,1.77,3l28.75,16.62a3.5,3.5,0,0,0,3.46,0l28.75-16.62a3.45,3.45,0,0,0,1.76-3V12.82a3.48,3.48,0,0,0-1.76-3.05L202.62.2ZM200,84.56a.79.79,0,0,1-.41.75L189.74,91a1,1,0,0,1-.88,0L179,85.31a.86.86,0,0,1-.4-.75V73.17a.79.79,0,0,1,.4-.75l9.84-5.69a1,1,0,0,1,.88,0l9.83,5.69a.87.87,0,0,1,.41.75V84.56ZM298.3,72.9a3.39,3.39,0,0,0,1.7-3V61.84a3.52,3.52,0,0,0-1.7-3L269.76,42.32a3.5,3.5,0,0,0-3.46,0L237.55,58.93a3.44,3.44,0,0,0-1.77,3V95.07a3.46,3.46,0,0,0,1.77,3l28.54,16.27a3.37,3.37,0,0,0,3.39,0l17.3-9.63a1.7,1.7,0,0,0,0-3L257.89,85.1a1.76,1.76,0,0,1-.88-1.49V73.24a1.68,1.68,0,0,1,.88-1.49l9-5.16a1.65,1.65,0,0,1,1.76,0l9,5.16a1.76,1.76,0,0,1,.88,1.49v8.14a1.68,1.68,0,0,0,.88,1.49,1.66,1.66,0,0,0,1.77,0l17.08-10Z"/>
    <path class="b0fc354a-49c3-42a6-aaf5-0267575fc340" d="M267.59,71.34a.59.59,0,0,1,.67,0l5.5,3.19a.7.7,0,0,1,.34.61v6.37a.73.73,0,0,1-.34.61l-5.5,3.19a.62.62,0,0,1-.67,0l-5.5-3.19a.73.73,0,0,1-.34-.61V75.14a.7.7,0,0,1,.34-.61Z"/>
    <g>
      <path class="e732f91a-c7ce-4551-a58d-fe399ef989f7" d="M112.5,42.45a3.5,3.5,0,0,0-3.46,0L80.49,58.93a3.39,3.39,0,0,0-1.69,3v33a3.54,3.54,0,0,0,1.69,3L109,114.4a3.5,3.5,0,0,0,3.46,0l28.55-16.48a3.39,3.39,0,0,0,1.69-3v-33a3.52,3.52,0,0,0-1.69-3Z"/>
      <g class="be8608a3-6cf3-4f67-9502-14122d48f164">
        <g>
          <path class="fb7fbdf0-9039-44e4-ad36-b377b64e2204" d="M109,42.45,80.36,58.93a3.5,3.5,0,0,0-1.83,3v33a3.28,3.28,0,0,0,.88,2.17L111.55,42a4,4,0,0,0-2.58.41Zm2.78,72.29a4.44,4.44,0,0,0,.82-.34l28.61-16.48a3.44,3.44,0,0,0,1.77-3v-33a3.45,3.45,0,0,0-1-2.37l-30.18,55.2Z"/>
          <path class="b6ecdc3f-9814-42f0-87b3-d75e137eb81a" d="M141.12,58.93,112.43,42.45a4.45,4.45,0,0,0-.88-.34L79.41,97.18a3.52,3.52,0,0,0,1,.81L109,114.47a3.34,3.34,0,0,0,2.65.34l30.17-55.2a3.42,3.42,0,0,0-.74-.68Z"/>
        </g>
      </g>
      <g class="a2bc00a4-0b37-49fe-9965-05357fbf4f26">
        <g>
          <path class="fb7fbdf0-9039-44e4-ad36-b377b64e2204" d="M143,94.94v-33a3.52,3.52,0,0,0-1.83-3L112.43,42.45a3.22,3.22,0,0,0-1.08-.41l31.39,53.64a1.31,1.31,0,0,0,.21-.74Zm-62.59-36a3.5,3.5,0,0,0-1.83,3v33a3.65,3.65,0,0,0,1.83,3L109,114.4a3.22,3.22,0,0,0,2.24.41L80.56,58.86l-.2.07Z"/>
          <path class="b6774365-fb50-407e-9999-fcf2847e210a" d="M108.09,36.42l-.4.2h.54Z"/>
          <path class="f045c220-dbac-419b-8ef5-c5ddc4ee21a9" d="M141.18,97.92a3.82,3.82,0,0,0,1.7-2.17L111.41,42a3.5,3.5,0,0,0-2.44.41L80.49,58.86l30.72,56a4.83,4.83,0,0,0,1.29-.4l28.68-16.55Z"/>
          <path class="b51c8e80-4dc6-4aa1-90e0-de38e6ecf77c" d="M143.83,97.38l-.2-.34v.47l.2-.13Z"/>
          <path class="ae66b151-2679-4d59-8ddb-1ded255ff56f" d="M141.18,97.92,112.57,114.4a4.52,4.52,0,0,1-1.29.41l.54,1,31.74-18.37V97l-.82-1.36A3.11,3.11,0,0,1,141.18,97.92Z"/>
          <path class="b2ab04a2-ca74-47e9-b384-abf5ec4acd5a" d="M141.18,97.92,112.57,114.4a4.52,4.52,0,0,1-1.29.41l.54,1,31.74-18.37V97l-.82-1.36A3.11,3.11,0,0,1,141.18,97.92Z"/>
        </g>
      </g>
    </g>
  </g>
</svg>
