<svg id="ab56053f-ce47-4722-b7db-4b150dcc44c1" xmlns="http://www.w3.org/2000/svg" viewBox="0 0 213.12 300">
  <defs>
    <style>
      .f985dda3-7aca-461e-b2f3-23485f950b1e {
        fill: #e6a329;
      }

      .be231b61-3cef-4e17-9daf-bde655d047a8 {
        fill: #f1bf22;
      }

      .b363bb2f-5356-4f69-980f-bc42fa3efbba {
        fill: #fff;
      }

      .be5c7f42-8472-43dd-b5b9-5c56a52a10f5 {
        fill: #ebebeb;
      }

      .bca48021-008a-4fde-803c-84f59c123c89 {
        fill: #231f20;
      }
    </style>
  </defs>
  <title>technology-icon-javascript</title>
  <path class="f985dda3-7aca-461e-b2f3-23485f950b1e" d="M213.12,58.79H0L20,275.45,106.55,300l86.57-24.55Z"/>
  <path class="be231b61-3cef-4e17-9daf-bde655d047a8" d="M106.55,76.44v205.2l70.14-19.87L193.75,76.44Z"/>
  <path class="b363bb2f-5356-4f69-980f-bc42fa3efbba" d="M162.35,103H54.5L47,184.14l.16-.5h91.62l-3,34.32-29.23,8.41-29.67-8.55-1.77-20.77H48.18L52,238.56,106.55,254l54.55-15.48,7.51-81.47H71.38L72.62,130h67.47l1,15.55h27.16Z"/>
  <path class="be5c7f42-8472-43dd-b5b9-5c56a52a10f5" d="M106.57,103H54.5L47,184.14l.16-.5h59.42V157.18H75.17L76.42,130h30.15Zm-31.4,94h-27L52,238.54,106.55,254v-27.6l-29.67-8.57Z"/>
  <path class="bca48021-008a-4fde-803c-84f59c123c89" d="M85.82,26.83h-19V40.45H99.4V0H85.82ZM146.26.22H113.18V14.38c4.42,4.41,6.72,6.54,13.23,12.93H113.18V40.22h33.08V27.34L133,14.4h13.23Z"/>
</svg>
