<svg xmlns="http://www.w3.org/2000/svg" xmlns:xlink="http://www.w3.org/1999/xlink" viewBox="0 0 359.25 315.9">
  <defs>
    <style>
      .a20e30ee-1fe2-4c3b-822c-26089602780a {
        fill: url(#b16f4e64-9e62-4552-a0f1-b78c1d4f4d3f);
      }

      .f94eee85-41eb-44e0-8a6b-1e4e511c28d9 {
        fill: url(#b3f9db15-2e14-4c7e-a58f-e9dcf8755865);
      }

      .a5293696-5a0c-4a28-8e77-1869e94d29c9 {
        fill: url(#b825df55-9d35-4ce4-a97d-a7b8be7ed5df);
      }

      .a47a728f-e172-43c2-b448-95e49fbee73c {
        fill: url(#b4334c40-cf80-4034-ba65-d66fdd233819);
      }

      .bbe06b9c-5bae-429b-a47b-629aeff4bcd4 {
        fill: url(#b1130c35-d116-42c1-9c7c-132959718efc);
      }
    </style>
    <linearGradient id="b16f4e64-9e62-4552-a0f1-b78c1d4f4d3f" x1="-151.19" y1="61.29" x2="-151.11" y2="61.29" gradientTransform="matrix(1538, 0, 0, -576.75, 232643.59, 35481.84)" gradientUnits="userSpaceOnUse">
      <stop offset="0" stop-color="#4f4f4f"/>
      <stop offset="1"/>
    </linearGradient>
    <linearGradient id="b3f9db15-2e14-4c7e-a58f-e9dcf8755865" x1="-151.19" y1="60.07" x2="-151.11" y2="60.07" gradientTransform="matrix(1538, 0, 0, -576.75, 232643.59, 34712.84)" xlink:href="#b16f4e64-9e62-4552-a0f1-b78c1d4f4d3f"/>
    <linearGradient id="b825df55-9d35-4ce4-a97d-a7b8be7ed5df" x1="-151.19" y1="60.06" x2="-151.11" y2="60.06" gradientTransform="matrix(1538, 0, 0, -961.25, 232643.59, 57830.91)" gradientUnits="userSpaceOnUse">
      <stop offset="0" stop-color="#c40000"/>
      <stop offset="1" stop-color="red"/>
    </linearGradient>
    <linearGradient id="b4334c40-cf80-4034-ba65-d66fdd233819" x1="-151.19" y1="59.32" x2="-151.11" y2="59.32" gradientTransform="matrix(1538, 0, 0, -961.25, 232643.59, 57061.91)" xlink:href="#b825df55-9d35-4ce4-a97d-a7b8be7ed5df"/>
    <linearGradient id="b1130c35-d116-42c1-9c7c-132959718efc" x1="-151.19" y1="60.79" x2="-151.11" y2="60.79" gradientTransform="matrix(1538, 0, 0, -961.25, 232643.59, 58599.91)" xlink:href="#b825df55-9d35-4ce4-a97d-a7b8be7ed5df"/>
  </defs>
  <title>technology-icon-scala</title>
  <g>
    <path class="a20e30ee-1fe2-4c3b-822c-26089602780a" d="M118.1,123.08v15.38c0,2.59,56,6.94,92.4,15.39,17.61-4.09,30.68-9.12,30.68-15.39V123.08c0-6.26-13.07-11.31-30.68-15.39-36.45,8.45-92.4,12.8-92.4,15.39" transform="translate(-0.03)"/>
    <path class="f94eee85-41eb-44e0-8a6b-1e4e511c28d9" d="M118.1,61.54V76.92c0,2.6,56,6.94,92.4,15.39,17.61-4.08,30.68-9.12,30.68-15.39V61.54c0-6.26-13.07-11.3-30.68-15.39C174.05,54.6,118.1,59,118.1,61.54" transform="translate(-0.03)"/>
    <path class="a5293696-5a0c-4a28-8e77-1869e94d29c9" d="M118.1,92.31v46.15c0-3.84,123.08-11.54,123.08-30.77V61.54c0,19.23-123.08,26.92-123.08,30.77" transform="translate(-0.03)"/>
    <path class="a47a728f-e172-43c2-b448-95e49fbee73c" d="M118.1,30.77V76.92c0-3.84,123.08-11.54,123.08-30.77V0c0,19.23-123.08,26.92-123.08,30.77" transform="translate(-0.03)"/>
    <path class="bbe06b9c-5bae-429b-a47b-629aeff4bcd4" d="M118.1,153.85V200c0-3.85,123.08-11.54,123.08-30.77V123.08c0,19.23-123.08,26.92-123.08,30.77" transform="translate(-0.03)"/>
  </g>
  <g>
    <path d="M14,283.16c5.35,10.55,14,15.75,26,15.75,12.93,0,17.54-6.84,17.54-13.53,0-4.6-1.64-7.72-6-10.55s-7.43-4.31-15.16-7.13c-9.51-3.57-15-6.25-21-11-6-4.91-8.77-11.6-8.77-20.37a25.31,25.31,0,0,1,9.22-20.21c6.24-5.21,13.82-7.73,22.89-7.73,14.12,0,24.82,5.64,32,16.79l-13.23,9.07c-4-6.09-10.11-9.22-18.44-9.22-8.13,0-14,4.61-14,11,0,4.31,1.79,6.4,4.31,8.92,1.64,1.19,5.8,3,7.73,4L42.39,251l6.1,2.38c9.81,4,16.8,8.32,21.11,12.93s6.54,10.85,6.54,18.58c0,18.28-12.64,30.62-36.27,30.62-19.18,0-33.3-8.92-39.84-23.63Z" transform="translate(-0.03)"/>
    <path d="M156.67,249.41l-11,11.45a25.2,25.2,0,0,0-19-8.18,22.43,22.43,0,0,0-16.5,6.69,24.85,24.85,0,0,0,0,33.6,22.39,22.39,0,0,0,16.5,6.68,25.19,25.19,0,0,0,19-8.17l11,11.45q-12,12.93-30,12.93c-11.45,0-21.11-3.72-29-11.3s-11.74-17.09-11.74-28.39,3.86-20.66,11.74-28.24,17.54-11.45,29-11.45C138.69,236.48,148.65,240.79,156.67,249.41Z" transform="translate(-0.03)"/>
    <path d="M196.81,268.14c12.63-1.19,17.09-2.82,17.09-8.62,0-4.61-4.16-8.18-12.49-8.18q-12,0-20.06,9.82l-11-9.37c7.28-10.26,17.54-15.31,30.77-15.31,18.58,0,30.17,8.92,30.17,24.23v33.15c0,5.2,1.93,5.79,6.24,5.79H238v13.83c-1.78,1-4.61,1.63-8.32,1.63a12.81,12.81,0,0,1-9.52-3.56,12.47,12.47,0,0,1-2.67-4.91c-5.21,6.1-13.68,9.22-25.42,9.22-16.5,0-27.65-9.07-27.65-22.75C164.4,277.8,174.66,270.07,196.81,268.14Zm-2.09,32.56c11.9,0,19.18-5.36,19.18-14.87v-8.32a8.82,8.82,0,0,1-3.72,2.23c-3.42,1.19-5.64,1.48-12.78,2.23-10.41,1.19-15.61,4.45-15.61,9.66C181.79,297.43,186.55,300.7,194.72,300.7Z" transform="translate(-0.03)"/>
    <path d="M247.05,210.17h17.83v79.08c0,7.28,2.38,10.4,8.92,10.4a18.94,18.94,0,0,0,5.35-.59V315a32.2,32.2,0,0,1-8.47.89c-15.76,0-23.63-8-23.63-24.23Z" transform="translate(-0.03)"/>
    <path d="M318.1,268.14c12.64-1.19,17.1-2.82,17.1-8.62,0-4.61-4.17-8.18-12.49-8.18q-12,0-20.07,9.82l-11-9.37c7.29-10.26,17.54-15.31,30.77-15.31,18.58,0,30.18,8.92,30.18,24.23v33.15c0,5.2,1.93,5.79,6.24,5.79h.45v13.83c-1.79,1-4.61,1.63-8.33,1.63a12.78,12.78,0,0,1-9.51-3.56,12.56,12.56,0,0,1-2.68-4.91c-5.2,6.1-13.67,9.22-25.42,9.22-16.5,0-27.64-9.07-27.64-22.75C285.7,277.8,296,270.07,318.1,268.14ZM316,300.7c11.89,0,19.18-5.36,19.18-14.87v-8.32a9,9,0,0,1-3.72,2.23c-3.42,1.19-5.65,1.48-12.78,2.23-10.41,1.19-15.61,4.45-15.61,9.66C303.09,297.43,307.84,300.7,316,300.7Z" transform="translate(-0.03)"/>
  </g>
</svg>
