<svg id="Layer_1" data-name="Layer 1" xmlns="http://www.w3.org/2000/svg" viewBox="0 0 100 100">
  <defs>
    <style>
      .cls-1 {
        fill: #da1745;
      }
    </style>
  </defs>
  <path class="cls-1" d="M4.35,70.4a50,50,0,0,1,0-40.8ZM50.1,14.22c22.64,0,45,3.83,45,24.62,0,16.22-15.86,21.94-30.09,22.52C72.33,65.86,81.18,73,89.41,80.75A50,50,0,0,0,14.08,15.24C23.93,14.67,36.62,14.22,50.1,14.22ZM37.69,60.45V52.78c29.7.29,32.47-7.46,32.47-13.94,0-7.58-6.71-11.92-19.95-11.92A166,166,0,0,0,30.07,28V95.86a50,50,0,0,0,42.27-1.13A204.78,204.78,0,0,0,37.69,60.45Z"/>
</svg>
