<svg width="18" height="18" viewBox="0 0 18 18" fill="none" xmlns="http://www.w3.org/2000/svg">
<path d="M17.7888 16.6972L12.7827 11.6454C13.7623 10.4176 14.353 8.86175 14.353 7.17001C14.353 3.2101 11.1421 0 7.17648 0C3.2109 0 0 3.21479 0 7.17469C0 11.1346 3.2109 14.3447 7.17648 14.3447C8.89208 14.3447 10.4624 13.7449 11.6999 12.742L16.6732 17.761C16.8232 17.9203 17.0295 18 17.231 18C17.4232 18 17.6154 17.9297 17.7607 17.7891C18.0701 17.4939 18.0795 17.0065 17.7888 16.6972ZM7.17648 12.8029C5.67181 12.8029 4.2562 12.2171 3.19215 11.1533C2.1281 10.0896 1.54217 8.6743 1.54217 7.17469C1.54217 5.6704 2.1281 4.25514 3.19215 3.19604C4.2562 2.13226 5.67181 1.54647 7.17648 1.54647C8.68114 1.54647 10.0968 2.13226 11.1608 3.19604C12.2249 4.25983 12.8108 5.67509 12.8108 7.17469C12.8108 8.67899 12.2249 10.0942 11.1608 11.1533C10.0968 12.2171 8.68114 12.8029 7.17648 12.8029Z" fill="black"/>
</svg>
