<svg width="84" height="84" viewBox="0 0 84 84" fill="none" xmlns="http://www.w3.org/2000/svg">
<path d="M76.4657 27.1265C77.7756 25.6837 78.5806 23.7745 78.5806 21.6774V18.9677C78.5806 14.4845 74.9349 10.8387 70.4516 10.8387C65.9683 10.8387 62.3226 14.4845 62.3226 18.9677V21.6774C62.3226 23.7613 63.1164 25.6566 64.4091 27.0968H44.7097C43.9621 27.0968 43.3548 27.7021 43.3548 28.4516V29.8065H21.6774V32.5161H43.3548V33.871C43.3548 34.6205 43.9621 35.2258 44.7097 35.2258H62.3226V59.6129H8.12903V8.12903H75.871V10.8387H78.5806V7.87963C80.1538 7.31864 81.2903 5.82819 81.2903 4.06452C81.2903 1.82387 79.4665 0 77.2258 0H6.77419C4.53355 0 2.70968 1.82387 2.70968 4.06452C2.70968 5.82819 3.84621 7.31864 5.41935 7.87963V59.6129H1.35484C0.607296 59.6129 0 60.2182 0 60.9677V66.3871C0 67.1366 0.607296 67.7419 1.35484 67.7419H40.6452V74.5161C40.6452 75.2657 41.2525 75.871 42 75.871C43.4944 75.871 44.7097 77.0862 44.7097 78.5806C44.7097 80.0751 43.4944 81.2903 42 81.2903C40.5056 81.2903 39.2903 80.0751 39.2903 78.5806H36.5806C36.5806 81.5695 39.0112 84 42 84C44.9888 84 47.4194 81.5695 47.4194 78.5806C47.4194 76.0608 45.6894 73.9346 43.3548 73.3333V67.7419H62.3226V82.6452C62.3226 83.3947 62.9299 84 63.6774 84H77.2258C77.9734 84 78.5806 83.3947 78.5806 82.6452V54.1936H82.6452C83.3927 54.1936 84 53.5882 84 52.8387V35.2258C84 30.9443 80.6711 27.4342 76.4657 27.1265ZM65.0323 21.6774V18.9677C65.0323 15.9789 67.4628 13.5484 70.4516 13.5484C73.4405 13.5484 75.871 15.9789 75.871 18.9677V21.6774C75.871 24.6663 73.4405 27.0968 70.4516 27.0968C67.4628 27.0968 65.0323 24.6663 65.0323 21.6774ZM6.77419 2.70968H77.2258C77.972 2.70968 78.5806 3.31697 78.5806 4.06452C78.5806 4.81206 77.972 5.41935 77.2258 5.41935H6.77419C6.02797 5.41935 5.41935 4.81206 5.41935 4.06452C5.41935 3.31697 6.02797 2.70968 6.77419 2.70968ZM2.70968 65.0323V62.3226H62.3226V65.0323H2.70968ZM81.2903 51.4839H78.5806V37.9355H75.871V81.2903H71.8064V51.4839H69.0968V81.2903H65.0323V33.871C65.0323 33.1214 64.425 32.5161 63.6774 32.5161H46.0645V29.8065H75.871C78.8598 29.8065 81.2903 32.237 81.2903 35.2258V51.4839Z" fill="white"/>
<path d="M10.8387 21.6774H13.5484V27.0967H10.8387V21.6774Z" fill="white"/>
<path d="M10.8387 16.2581H13.5484V18.9677H10.8387V16.2581Z" fill="white"/>
<path d="M16.2581 18.9678H18.9677V27.0968H16.2581V18.9678Z" fill="white"/>
<path d="M16.2581 13.5483H18.9677V16.258H16.2581V13.5483Z" fill="white"/>
<path d="M21.6774 16.2581H24.387V27.0968H21.6774V16.2581Z" fill="white"/>
<path d="M21.6774 10.8387H24.387V13.5484H21.6774V10.8387Z" fill="white"/>
<path d="M27.0968 16.2581H29.8065V27.0968H27.0968V16.2581Z" fill="white"/>
<path d="M27.0968 10.8387H29.8065V13.5484H27.0968V10.8387Z" fill="white"/>
<path d="M29.8064 46.0645C29.8064 41.5812 26.1606 37.9354 21.6774 37.9354V40.6451C24.6662 40.6451 27.0967 43.0756 27.0967 46.0645H29.8064Z" fill="white"/>
<path d="M18.9678 56.9032C23.451 56.9032 27.0968 53.2574 27.0968 48.7742C27.0968 48.0246 26.4895 47.4193 25.742 47.4193H20.3226V42C20.3226 41.2505 19.7153 40.6451 18.9678 40.6451C14.4845 40.6451 10.8387 44.2909 10.8387 48.7742C10.8387 53.2574 14.4845 56.9032 18.9678 56.9032ZM17.6129 43.5268V48.7742C17.6129 49.5237 18.2202 50.129 18.9678 50.129H24.2165C23.6138 52.4649 21.4889 54.1935 18.9678 54.1935C15.9789 54.1935 13.5484 51.763 13.5484 48.7742C13.5484 46.2544 15.2784 44.1282 17.6129 43.5268Z" fill="white"/>
<path d="M32.5161 54.1936H51.4839V56.9033H32.5161V54.1936Z" fill="white"/>
<path d="M32.5161 48.7742H51.4839V51.4838H32.5161V48.7742Z" fill="white"/>
<path d="M32.5161 43.3549H51.4839V46.0645H32.5161V43.3549Z" fill="white"/>
</svg>
