<svg width="84" height="84" viewBox="0 0 84 84" fill="none" xmlns="http://www.w3.org/2000/svg">
<path d="M77.2258 5.41931H6.77415C6.02462 5.41931 5.41931 6.02661 5.41931 6.77415V44.7096C5.41931 45.4592 6.02462 46.0645 6.77415 46.0645H77.2258C77.9753 46.0645 78.5806 45.4592 78.5806 44.7096V6.77415C78.5806 6.02661 77.9753 5.41931 77.2258 5.41931ZM65.0322 21.6774H18.9677V13.5483H65.0322V21.6774ZM18.9677 24.3871H65.0322V43.3548H18.9677V24.3871ZM75.8709 43.3548H67.7419V12.1935C67.7419 11.446 67.1366 10.8387 66.3871 10.8387H17.6129C16.8633 10.8387 16.258 11.446 16.258 12.1935V43.3548H8.12899V8.12899H75.8709V43.3548Z" fill="white"/>
<path d="M79.9355 51.4839C82.1761 51.4839 84 49.66 84 47.4194V4.06452C84 1.82387 82.1761 0 79.9355 0H4.06452C1.82387 0 0 1.82387 0 4.06452V47.4194C0 49.66 1.82387 51.4839 4.06452 51.4839H36.5806V54.1936H31.1613C27.4262 54.1936 24.3871 57.2327 24.3871 60.9677C24.3871 61.7173 24.9924 62.3226 25.7419 62.3226H58.2581C59.0076 62.3226 59.6129 61.7173 59.6129 60.9677C59.6129 57.2327 56.5738 54.1936 52.8387 54.1936H47.4194V51.4839H70.4516V52.8387C70.4516 55.0794 72.2755 56.9032 74.5161 56.9032H79.9355C80.683 56.9032 81.2903 57.5105 81.2903 58.2581C81.2903 59.0056 80.683 59.6129 79.9355 59.6129H66.3871C64.1465 59.6129 62.3226 61.4368 62.3226 63.6774V65.0323H6.77419C6.02467 65.0323 5.41935 65.6376 5.41935 66.3871V82.6452C5.41935 83.3947 6.02467 84 6.77419 84H77.2258C77.9753 84 78.5806 83.3947 78.5806 82.6452V66.3871C78.5806 65.6376 77.9753 65.0323 77.2258 65.0323H65.0323V63.6774C65.0323 62.9299 65.6396 62.3226 66.3871 62.3226H79.9355C82.1761 62.3226 84 60.4987 84 58.2581C84 56.0174 82.1761 54.1936 79.9355 54.1936H74.5161C73.7686 54.1936 73.1613 53.5863 73.1613 52.8387V51.4839H79.9355ZM75.871 81.2903H8.12903V67.7419H75.871V81.2903ZM2.70968 47.4194V4.06452C2.70968 3.3183 3.31697 2.70968 4.06452 2.70968H79.9355C80.683 2.70968 81.2903 3.3183 81.2903 4.06452V47.4194C81.2903 48.1669 80.683 48.7742 79.9355 48.7742H4.06452C3.31697 48.7742 2.70968 48.1669 2.70968 47.4194ZM56.6717 59.6129H27.3283C27.888 58.0358 29.3943 56.9032 31.1613 56.9032H52.8387C54.6057 56.9032 56.112 58.0358 56.6717 59.6129ZM44.7097 54.1936H39.2903V51.4839H44.7097V54.1936Z" fill="white"/>
<path d="M70.4517 70.4517H73.1613V73.1613H70.4517V70.4517Z" fill="white"/>
<path d="M70.4517 75.871H73.1613V78.5807H70.4517V75.871Z" fill="white"/>
<path d="M65.0322 70.4517H67.7419V73.1613H65.0322V70.4517Z" fill="white"/>
<path d="M65.0322 75.871H67.7419V78.5807H65.0322V75.871Z" fill="white"/>
<path d="M59.6129 70.4517H62.3226V73.1613H59.6129V70.4517Z" fill="white"/>
<path d="M59.6129 75.871H62.3226V78.5807H59.6129V75.871Z" fill="white"/>
<path d="M21.6774 70.4517H24.387V73.1613H21.6774V70.4517Z" fill="white"/>
<path d="M21.6774 75.871H40.6451V78.5807H21.6774V75.871Z" fill="white"/>
<path d="M16.2581 70.4517H18.9677V73.1613H16.2581V70.4517Z" fill="white"/>
<path d="M16.2581 75.871H18.9677V78.5807H16.2581V75.871Z" fill="white"/>
<path d="M10.8387 70.4517H13.5484V73.1613H10.8387V70.4517Z" fill="white"/>
<path d="M10.8387 75.871H13.5484V78.5807H10.8387V75.871Z" fill="white"/>
<path d="M37.9354 70.4517H40.6451V73.1613H37.9354V70.4517Z" fill="white"/>
<path d="M32.5161 70.4517H35.2258V73.1613H32.5161V70.4517Z" fill="white"/>
<path d="M48.7742 70.4517H51.4838V73.1613H48.7742V70.4517Z" fill="white"/>
<path d="M48.7742 75.871H51.4838V78.5807H48.7742V75.871Z" fill="white"/>
<path d="M43.3549 70.4517H46.0645V73.1613H43.3549V70.4517Z" fill="white"/>
<path d="M43.3549 75.871H46.0645V78.5807H43.3549V75.871Z" fill="white"/>
<path d="M27.0968 70.4517H29.8065V73.1613H27.0968V70.4517Z" fill="white"/>
<path d="M21.6774 16.2581H24.387V18.9677H21.6774V16.2581Z" fill="white"/>
<path d="M27.0968 16.2581H29.8065V18.9677H27.0968V16.2581Z" fill="white"/>
<path d="M32.5161 16.2581H35.2258V18.9677H32.5161V16.2581Z" fill="white"/>
<path d="M37.9354 16.2581H62.3225V18.9677H37.9354V16.2581Z" fill="white"/>
<path d="M27.4937 27.4937L22.0743 32.913C21.5444 33.4429 21.5444 34.2989 22.0743 34.8288L27.4937 40.2482L29.4095 38.3324L24.948 33.8709L29.4095 29.4095L27.4937 27.4937Z" fill="white"/>
<path d="M45.6676 32.913L40.2482 27.4937L38.3324 29.4095L42.7938 33.8709L38.3324 38.3324L40.2482 40.2482L45.6676 34.8288C46.1975 34.2989 46.1975 33.4429 45.6676 32.913Z" fill="white"/>
<path d="M29.9023 40.1437L35.323 26.5967L37.8395 27.6035L32.4189 41.1506L29.9023 40.1437Z" fill="white"/>
<path d="M48.7742 27.0968H51.4838V29.8065H48.7742V27.0968Z" fill="white"/>
<path d="M54.1936 27.0968H59.613V29.8065H54.1936V27.0968Z" fill="white"/>
<path d="M48.7742 32.5161H54.1935V35.2258H48.7742V32.5161Z" fill="white"/>
<path d="M56.9032 32.5161H59.6129V35.2258H56.9032V32.5161Z" fill="white"/>
<path d="M59.6129 37.9354H62.3226V40.6451H59.6129V37.9354Z" fill="white"/>
<path d="M54.1936 37.9354H56.9033V40.6451H54.1936V37.9354Z" fill="white"/>
<path d="M46.0646 37.9354H51.4839V40.6451H46.0646V37.9354Z" fill="white"/>
</svg>
