<svg width="84" height="84" viewBox="0 0 84 84" fill="none" xmlns="http://www.w3.org/2000/svg">
<path d="M79.7979 37.8C77.5145 37.8 75.6497 39.6326 75.5993 41.9048L74.2679 52.5504L66.6183 60.2H61.7869L65.5123 55.7312C66.6813 54.3284 66.9865 52.402 66.3075 50.7052C65.6859 49.1498 64.3349 48.0215 62.6927 47.6841C61.0533 47.3467 59.3649 47.8534 58.1805 49.0378L43.8081 63.4102C43.5449 63.672 43.3979 64.029 43.3979 64.4V77V82.6C43.3979 83.3728 44.0251 84 44.7979 84H67.1979C67.9707 84 68.5979 83.3728 68.5979 82.6V77C68.5979 76.2272 67.9707 75.6 67.1979 75.6H65.7979V72.1L82.0379 59.92C82.3585 59.6792 82.5601 59.3152 82.5937 58.9162L83.9979 42C83.9979 39.6844 82.1135 37.8 79.7979 37.8ZM65.7979 81.2H46.1979V78.4H65.7979V81.2ZM79.8553 58.0567L63.5579 70.28C63.2051 70.5447 62.9979 70.959 62.9979 71.4V75.6H46.1979V64.9797L60.1615 51.016C60.6865 50.4924 61.4061 50.2741 62.1313 50.4253C62.8579 50.5737 63.4333 51.0552 63.7077 51.7426C64.0045 52.4832 63.8715 53.3246 63.3605 53.9364L57.7227 60.7027C57.3741 61.1199 57.2999 61.7008 57.5295 62.1922C57.7605 62.685 58.2547 63 58.7979 63H67.1979C67.5689 63 67.9259 62.8531 68.1877 62.5898L76.5877 54.1898C76.8075 53.97 76.9489 53.683 76.9867 53.3736L78.3867 42.1736C78.3951 42.1162 78.3979 42.0588 78.3979 42C78.3979 41.2286 79.0265 40.6 79.7979 40.6C80.5693 40.6 81.1979 41.2286 81.2021 41.8838L79.8553 58.0567Z" fill="white"/>
<path d="M40.1877 63.4102L25.8139 49.0365C24.6295 47.852 22.9439 47.3452 21.3017 47.6826C19.6595 48.02 18.3099 49.1484 17.6869 50.7052C17.0093 52.402 17.3131 54.327 18.4835 55.7312L22.2089 60.2H17.3775L9.72788 52.5504L8.39648 41.9048C8.34608 39.6326 6.48128 37.8 4.19788 37.8C1.88228 37.8 -0.0021178 39.6844 0.0020822 42.1162L1.40208 58.9162C1.43568 59.3152 1.63728 59.6792 1.95788 59.92L18.1979 72.1V75.6H16.7979C16.0251 75.6 15.3979 76.2272 15.3979 77V82.6C15.3979 83.3728 16.0251 84 16.7979 84H39.1979C39.9707 84 40.5979 83.3728 40.5979 82.6V77V64.4C40.5979 64.029 40.4509 63.672 40.1877 63.4102ZM37.7979 81.2H18.1979V78.4H37.7979V81.2ZM37.7979 75.6H20.9979V71.4C20.9979 70.959 20.7907 70.5447 20.4379 70.28L4.14048 58.0567L2.79788 42C2.79788 41.2286 3.42648 40.6 4.19788 40.6C4.96928 40.6 5.59788 41.2286 5.59788 42C5.59788 42.0588 5.60068 42.1162 5.60908 42.1736L7.00908 53.3736C7.04688 53.683 7.18828 53.97 7.40808 54.1898L15.8081 62.5898C16.0699 62.8531 16.4269 63 16.7979 63H25.1979C25.7411 63 26.2353 62.685 26.4663 62.1936C26.6973 61.7008 26.6217 61.1199 26.2731 60.7041L20.6353 53.9378C20.1243 53.3246 19.9913 52.4846 20.2867 51.744C20.5625 51.0552 21.1379 50.5751 21.8645 50.4253C22.5883 50.2741 23.3093 50.491 23.8343 51.016L37.7979 64.9797V75.6Z" fill="white"/>
<path d="M41.9979 8.40002C33.5069 8.40002 26.5979 15.309 26.5979 23.8C26.5979 26.4852 27.3119 29.1396 28.6657 31.4818L33.5979 45.0478V50.4C33.5979 50.4028 33.5993 50.4042 33.5993 50.407C33.6007 50.5708 33.6385 50.7304 33.6959 50.8858C33.7113 50.9264 33.7281 50.9642 33.7463 51.002C33.7645 51.0412 33.7757 51.0832 33.7981 51.121L37.9981 58.121C38.2501 58.5424 38.7065 58.8 39.1979 58.8H44.7979C45.2893 58.8 45.7457 58.5424 45.9977 58.121L50.1977 51.121C50.2201 51.0832 50.2299 51.0412 50.2495 51.002C50.2677 50.9628 50.2845 50.9264 50.2999 50.8858C50.3573 50.7304 50.3965 50.5708 50.3965 50.407C50.3965 50.4042 50.3979 50.4028 50.3979 50.4V45.0478L55.3301 31.4832C56.6839 29.1396 57.3979 26.4852 57.3979 23.8C57.3979 15.309 50.4889 8.40002 41.9979 8.40002ZM44.0055 56H39.9917L37.4717 51.8H46.5269L44.0055 56ZM47.5979 49H36.3979V46.2H47.5979V49ZM52.8507 30.1756C52.8073 30.2498 52.7709 30.3268 52.7415 30.408L48.0179 43.4H35.9779L31.2529 30.4066C31.2235 30.3254 31.1871 30.2484 31.1437 30.1742C30.0013 28.2352 29.3979 26.0302 29.3979 23.8C29.3979 16.8532 35.0511 11.2 41.9979 11.2C48.9447 11.2 54.5979 16.8532 54.5979 23.8C54.5979 26.0302 53.9945 28.2352 52.8507 30.1756Z" fill="white"/>
<path d="M43.3979 0H40.5979V5.6H43.3979V0Z" fill="white"/>
<path d="M63.4085 6.00916L59.2082 10.2095L61.1881 12.1894L65.3884 7.98904L63.4085 6.00916Z" fill="white"/>
<path d="M71.3979 21H65.7979V23.8H71.3979V21Z" fill="white"/>
<path d="M62.587 34.0106L60.6071 35.9905L64.8074 40.1908L66.7873 38.2109L62.587 34.0106Z" fill="white"/>
<path d="M21.4076 34.0027L17.2073 38.203L19.1872 40.1829L23.3875 35.9826L21.4076 34.0027Z" fill="white"/>
<path d="M19.5979 21H12.5979V23.8H19.5979V21Z" fill="white"/>
<path d="M20.5873 4.61045L18.6074 6.59033L22.8077 10.7906L24.7876 8.81077L20.5873 4.61045Z" fill="white"/>
<path d="M48.7893 27.2649C48.5331 26.8519 48.0837 26.5999 47.5979 26.5999H40.0631L44.6495 17.4257L42.1449 16.1727L36.5449 27.3727C36.3279 27.8067 36.3517 28.3219 36.6065 28.7349C36.8627 29.1479 37.3121 29.3999 37.7979 29.3999H45.3327L40.7463 38.5741L43.2509 39.8271L48.8509 28.6271C49.0679 28.1931 49.0441 27.6779 48.7893 27.2649Z" fill="white"/>
</svg>
