<svg width="84" height="84" viewBox="0 0 84 84" fill="none" xmlns="http://www.w3.org/2000/svg">
<g clip-path="url(#clip0)">
<path d="M29.8065 17.613H31.5179C32.1358 17.613 32.6749 17.1942 32.8304 16.5955C33.0408 15.7772 33.355 14.9979 33.7612 14.2854C34.0635 13.7542 33.9729 13.088 33.5415 12.6567L31.7223 10.8388L33.871 8.69008L35.6889 10.508C36.1202 10.9393 36.7864 11.0273 37.3176 10.7276C38.0301 10.3214 38.8094 10.0085 39.6277 9.79684C40.2264 9.6427 40.6452 9.10354 40.6452 8.48566V6.77425H43.3549V8.48566C43.3549 9.10354 43.7736 9.6427 44.3723 9.79816C45.1906 10.0085 45.9699 10.3228 46.6824 10.729C47.2136 11.0286 47.8785 10.9406 48.3111 10.5093L50.1291 8.69008L52.2778 10.8388L50.4598 12.6567C50.0285 13.088 49.9379 13.7555 50.2402 14.2854C50.6464 14.9966 50.9593 15.7759 51.1723 16.5982C51.3278 17.1942 51.8663 17.613 52.4835 17.613H54.1936V20.3226H56.9033V16.2581C56.9033 15.5086 56.2979 14.9033 55.5484 14.9033H53.4877C53.3647 14.5527 53.2264 14.2093 53.0716 13.8766L55.1515 11.7967C55.6814 11.2668 55.6814 10.4108 55.1515 9.88086L51.087 5.81634C50.5571 5.28644 49.701 5.28644 49.1711 5.81634L47.0913 7.89623C46.7585 7.74275 46.4138 7.60317 46.0645 7.48144V5.41941C46.0645 4.66989 45.4592 4.06458 44.7097 4.06458H39.2903C38.5408 4.06458 37.9355 4.66989 37.9355 5.41941V7.48144C37.5862 7.60317 37.2416 7.74143 36.9088 7.89623L34.8289 5.81634C34.299 5.28644 33.443 5.28644 32.9131 5.81634L28.8486 9.88086C28.3187 10.4108 28.3187 11.2668 28.8486 11.7967L30.9285 13.8766C30.775 14.2093 30.6354 14.554 30.5137 14.9033H28.4516C27.7021 14.9033 27.0968 15.5086 27.0968 16.2581V20.3226H29.8065V17.613Z" fill="white"/>
<path d="M48.7742 20.3226V18.9678C48.7742 15.2327 45.7351 12.1936 42 12.1936C38.265 12.1936 35.2258 15.2327 35.2258 18.9678V20.3226H37.9355V18.9678C37.9355 16.7272 39.7594 14.9033 42 14.9033C44.2407 14.9033 46.0645 16.7272 46.0645 18.9678V20.3226H48.7742Z" fill="white"/>
<path d="M27.0968 47.4193H24.3871C24.3871 48.9137 23.1718 50.129 21.6774 50.129C20.183 50.129 18.9677 48.9137 18.9677 47.4193H16.2581C16.2581 50.4082 18.6886 52.8387 21.6774 52.8387C24.6663 52.8387 27.0968 50.4082 27.0968 47.4193Z" fill="white"/>
<path d="M18.2903 43.3548C19.411 43.3548 20.3226 42.4432 20.3226 41.3225C20.3226 40.2019 19.411 39.2903 18.2903 39.2903C17.1697 39.2903 16.2581 40.2019 16.2581 41.3225C16.2581 42.4432 17.1697 43.3548 18.2903 43.3548ZM18.2903 40.6451C18.6628 40.6451 18.9677 40.9501 18.9677 41.3225C18.9677 41.695 18.6628 42 18.2903 42C17.9179 42 17.6129 41.695 17.6129 41.3225C17.6129 40.9501 17.9179 40.6451 18.2903 40.6451Z" fill="white"/>
<path d="M25.0645 43.3548C26.1851 43.3548 27.0967 42.4432 27.0967 41.3225C27.0967 40.2019 26.1851 39.2903 25.0645 39.2903C23.9438 39.2903 23.0322 40.2019 23.0322 41.3225C23.0322 42.4432 23.9438 43.3548 25.0645 43.3548ZM25.0645 40.6451C25.4369 40.6451 25.7419 40.9501 25.7419 41.3225C25.7419 41.695 25.4369 42 25.0645 42C24.692 42 24.3871 41.695 24.3871 41.3225C24.3871 40.9501 24.692 40.6451 25.0645 40.6451Z" fill="white"/>
<path d="M20.3226 70.4517H23.0323V73.1613H20.3226V70.4517Z" fill="white"/>
<path d="M20.3226 75.871H23.0323V78.5807H20.3226V75.871Z" fill="white"/>
<path d="M67.7419 47.4193H65.0322C65.0322 48.9137 63.817 50.129 62.3226 50.129C60.8281 50.129 59.6129 48.9137 59.6129 47.4193H56.9032C56.9032 50.4082 59.3337 52.8387 62.3226 52.8387C65.3114 52.8387 67.7419 50.4082 67.7419 47.4193Z" fill="white"/>
<path d="M65.7096 43.3548C66.8303 43.3548 67.7419 42.4432 67.7419 41.3225C67.7419 40.2019 66.8303 39.2903 65.7096 39.2903C64.589 39.2903 63.6774 40.2019 63.6774 41.3225C63.6774 42.4432 64.589 43.3548 65.7096 43.3548ZM65.7096 40.6451C66.0821 40.6451 66.387 40.9501 66.387 41.3225C66.387 41.695 66.0821 42 65.7096 42C65.3372 42 65.0322 41.695 65.0322 41.3225C65.0322 40.9501 65.3372 40.6451 65.7096 40.6451Z" fill="white"/>
<path d="M58.9355 43.3548C60.0561 43.3548 60.9677 42.4432 60.9677 41.3225C60.9677 40.2019 60.0561 39.2903 58.9355 39.2903C57.8148 39.2903 56.9032 40.2019 56.9032 41.3225C56.9032 42.4432 57.8148 43.3548 58.9355 43.3548ZM58.9355 40.6451C59.3079 40.6451 59.6129 40.9501 59.6129 41.3225C59.6129 41.695 59.3079 42 58.9355 42C58.563 42 58.258 41.695 58.258 41.3225C58.258 40.9501 58.563 40.6451 58.9355 40.6451Z" fill="white"/>
<path d="M76.2123 58.422L68.1336 56.9534L68.0469 56.6061C71.1112 54.6896 73.1613 51.2926 73.1613 47.4193V43.9157L78.1837 38.8933C78.4384 38.6399 78.5806 38.2959 78.5806 37.9354V29.8064C78.5806 29.0568 77.9753 28.4515 77.2258 28.4515H71.8064V27.0967C71.8064 26.3472 71.2011 25.7418 70.4516 25.7418H53.3997L49.7321 22.0743C49.3444 21.6866 48.7623 21.5688 48.2555 21.7805C47.7488 21.9889 47.4194 22.4851 47.4194 23.0322V33.8709C47.4194 34.2314 47.5616 34.5754 47.8163 34.8288L51.4839 38.4964V47.4193C51.4839 51.2926 53.534 54.6896 56.5983 56.6048L56.5116 56.9521L48.4328 58.4207C45.661 58.9235 43.3654 60.6031 42 62.8835C40.6346 60.6031 38.339 58.9235 35.5672 58.4207L27.4884 56.9521L27.4017 56.6048C30.466 54.6896 32.5161 51.2926 32.5161 47.4193V38.4964L36.1837 34.8288C36.4384 34.5754 36.5806 34.2314 36.5806 33.8709V23.0322C36.5806 22.4851 36.2512 21.9889 35.7445 21.7805C35.2377 21.5688 34.6569 21.6853 34.2679 22.0743L30.6003 25.7418H13.5484C12.7989 25.7418 12.1935 26.3472 12.1935 27.0967V28.4515H6.77419C6.02467 28.4515 5.41935 29.0568 5.41935 29.8064V37.9354C5.41935 38.2959 5.56159 38.6399 5.81628 38.8933L10.8387 43.9157V47.4193C10.8387 51.2926 12.8888 54.6896 15.9531 56.6048L15.8664 56.9521L7.78768 58.4207C3.27463 59.2417 0 63.1653 0 67.7524V82.6451C0 83.3946 0.605311 83.9999 1.35484 83.9999H82.6452C83.3947 83.9999 84 83.3946 84 82.6451V67.7524C84 63.1653 80.7254 59.2417 76.2123 58.422ZM50.129 26.3028L51.8808 28.0546C52.1342 28.3093 52.4782 28.4515 52.8387 28.4515H69.0968V29.8064C69.0968 30.5559 69.7021 31.1612 70.4516 31.1612H75.871V37.3744L73.1613 40.0841V35.2257C73.1613 34.4762 72.556 33.8709 71.8064 33.8709H52.8387C52.2559 33.8709 51.7697 34.242 51.5785 34.758L50.129 33.3099V26.3028ZM54.1936 47.4193V36.5806H70.4516V47.4193C70.4516 51.9025 66.8059 55.5483 62.3226 55.5483C57.8393 55.5483 54.1936 51.9025 54.1936 47.4193ZM62.3226 58.258C63.4446 58.258 64.5268 58.086 65.5456 57.7691L66.2409 60.5529L62.3226 64.4712L58.4029 60.5515L59.0982 57.7678C60.1183 58.086 61.2006 58.258 62.3226 58.258ZM35.2258 78.5806H40.6452V81.2902H35.2258V78.5806ZM8.12903 37.3744V31.1612H13.5484C14.2979 31.1612 14.9032 30.5559 14.9032 29.8064V28.4515H31.1613C31.5218 28.4515 31.8658 28.3093 32.1192 28.0546L33.871 26.3028V33.3099L32.4229 34.758C32.2303 34.242 31.7441 33.8709 31.1613 33.8709H12.1935C11.444 33.8709 10.8387 34.4762 10.8387 35.2257V40.0841L8.12903 37.3744ZM13.5484 47.4193V36.5806H29.8065V47.4193C29.8065 51.9025 26.1607 55.5483 21.6774 55.5483C17.1941 55.5483 13.5484 51.9025 13.5484 47.4193ZM21.6774 58.258C22.7994 58.258 23.8817 58.086 24.9005 57.7691L25.5957 60.5529L21.6774 64.4712L17.7578 60.5515L18.4531 57.7678C19.4732 58.086 20.5554 58.258 21.6774 58.258ZM8.27126 61.0867L15.1447 59.8364L14.9436 60.6382C14.8271 61.1006 14.9641 61.5882 15.3002 61.9242L20.7195 67.3436C20.9835 67.6089 21.3308 67.7418 21.6774 67.7418C22.0241 67.7418 22.3714 67.6089 22.6353 67.3449L28.0547 61.9256C28.3908 61.5895 28.5277 61.1019 28.4113 60.6395L28.2101 59.8377L35.0836 61.0881C38.3053 61.6735 40.6452 64.4765 40.6452 67.7524V75.8709H35.2258V70.4515H32.5161V81.2902H10.8387V70.4515H8.12903V75.8709H2.70968V67.7524C2.70968 64.4765 5.04955 61.6735 8.27126 61.0867ZM2.70968 78.5806H8.12903V81.2902H2.70968V78.5806ZM43.3548 78.5806H48.7742V81.2902H43.3548V78.5806ZM75.871 81.2902V78.5806H81.2903V81.2902H75.871ZM81.2903 75.8709H75.871V70.4515H73.1613V81.2902H51.4839V70.4515H48.7742V75.8709H43.3548V67.7524C43.3548 64.4765 45.6947 61.6735 48.9164 61.0867L55.7899 59.8364L55.5887 60.6382C55.4723 61.1006 55.6092 61.5882 55.9453 61.9242L61.3647 67.3436C61.6286 67.6089 61.9759 67.7418 62.3226 67.7418C62.6692 67.7418 63.0165 67.6089 63.2805 67.3449L68.6999 61.9256C69.0359 61.5895 69.1729 61.1019 69.0564 60.6395L68.8553 59.8377L75.7287 61.0881C78.9504 61.6735 81.2903 64.4765 81.2903 67.7524V75.8709Z" fill="white"/>
<path d="M60.9678 70.4517H63.6774V73.1613H60.9678V70.4517Z" fill="white"/>
<path d="M60.9678 75.871H63.6774V78.5807H60.9678V75.871Z" fill="white"/>
<path d="M1.35484 18.9677H18.5569L22.2801 21.4498C22.5063 21.6 22.7696 21.6774 23.0323 21.6774C23.2519 21.6774 23.4715 21.6245 23.672 21.5173C24.1119 21.2818 24.3871 20.8227 24.3871 20.3226V1.35484C24.3871 0.605311 23.7818 0 23.0323 0H1.35484C0.605311 0 0 0.605311 0 1.35484V17.6129C0 18.3624 0.605311 18.9677 1.35484 18.9677ZM2.70968 2.70968H21.6774V17.7915L19.7199 16.4856C19.4976 16.3381 19.2343 16.2581 18.9677 16.2581H2.70968V2.70968Z" fill="white"/>
<path d="M5.41931 8.12903H8.12899V10.8387H5.41931V8.12903Z" fill="white"/>
<path d="M10.8387 8.12903H13.5484V10.8387H10.8387V8.12903Z" fill="white"/>
<path d="M16.2581 8.12903H18.9677V10.8387H16.2581V8.12903Z" fill="white"/>
<path d="M82.6452 0H60.9678C60.2182 0 59.6129 0.605311 59.6129 1.35484V20.3226C59.6129 20.8227 59.8881 21.2818 60.328 21.5173C60.5285 21.6245 60.7481 21.6774 60.9678 21.6774C61.2304 21.6774 61.4937 21.6 61.7199 21.4498L65.4431 18.9677H82.6452C83.3947 18.9677 84 18.3624 84 17.6129V1.35484C84 0.605311 83.3947 0 82.6452 0ZM81.2903 16.2581H65.0323C64.7657 16.2581 64.5024 16.3381 64.2801 16.4856L62.3226 17.7915V2.70968H81.2903V16.2581Z" fill="white"/>
<path d="M75.871 8.12903H78.5807V10.8387H75.871V8.12903Z" fill="white"/>
<path d="M70.4517 8.12903H73.1613V10.8387H70.4517V8.12903Z" fill="white"/>
<path d="M65.0322 8.12903H67.7419V10.8387H65.0322V8.12903Z" fill="white"/>
</g>
<defs>
<clipPath id="clip0">
<rect width="84" height="84" fill="white"/>
</clipPath>
</defs>
</svg>
