<svg width="84" height="84" viewBox="0 0 84 84" fill="none" xmlns="http://www.w3.org/2000/svg">
<path d="M18 36C22.9635 36 27 31.9635 27 27C27 22.0365 22.9635 18 18 18C13.0365 18 9 22.0365 9 27C9 31.9635 13.0365 36 18 36ZM18 21C21.309 21 24 23.691 24 27C24 30.309 21.309 33 18 33C14.691 33 12 30.309 12 27C12 23.691 14.691 21 18 21Z" fill="white"/>
<path d="M66 36C70.9635 36 75 31.9635 75 27C75 22.0365 70.9635 18 66 18C61.0365 18 57 22.0365 57 27C57 31.9635 61.0365 36 66 36ZM66 21C69.309 21 72 23.691 72 27C72 30.309 69.309 33 66 33C62.691 33 60 30.309 60 27C60 23.691 62.691 21 66 21Z" fill="white"/>
<path d="M81 39V58.5C81 60.981 78.981 63 76.5 63V46.5C76.5 42.3645 73.1355 39 69 39H61.5C60.672 39 60 39.672 60 40.5V46.5V48V49.5H48C47.172 49.5 46.5 50.172 46.5 51V55.5H37.5V51C37.5 50.172 36.828 49.5 36 49.5H24V48V46.5V40.5C24 39.672 23.328 39 22.5 39H15C10.8645 39 7.5 42.3645 7.5 46.5V63C5.019 63 3 60.981 3 58.5V39H0V58.5C0 61.5675 1.8555 64.203 4.5 65.364V84H7.5V66H9H10.5H22.5V82.5C22.5 83.328 23.172 84 24 84H28.5H30H31.5V82.5V60V58.5H36H48H52.5V60V82.5V84H54H55.5H60C60.828 84 61.5 83.328 61.5 82.5V66H73.5H75H76.5V84H79.5V65.364C82.1445 64.203 84 61.5675 84 58.5V39H81ZM30 55.5H27H18V46.5H15V57C15 57.828 15.672 58.5 16.5 58.5H27C27.8265 58.5 28.5 59.1735 28.5 60V81H25.5V64.5C25.5 63.672 24.828 63 24 63H10.5V46.5C10.5 44.019 12.519 42 15 42H21V46.5V48V51C21 51.828 21.672 52.5 22.5 52.5H34.5V55.5H30ZM60 63C59.172 63 58.5 63.672 58.5 64.5V81H55.5V60C55.5 59.1735 56.1735 58.5 57 58.5H67.5C68.328 58.5 69 57.828 69 57V46.5H66V55.5H57H54H49.5V52.5H61.5C62.328 52.5 63 51.828 63 51V48V46.5V42H69C71.481 42 73.5 44.019 73.5 46.5V63H60Z" fill="white"/>
<path d="M28.5 15V19.5C28.5 20.1465 28.9125 20.718 29.526 20.9235C29.682 20.9745 29.8425 21 30 21C30.4635 21 30.9105 20.784 31.2 20.4L35.25 15H46.5C48.981 15 51 12.981 51 10.5V4.5C51 2.019 48.981 0 46.5 0H28.5C26.019 0 24 2.019 24 4.5V10.5C24 12.981 26.019 15 28.5 15ZM27 4.5C27 3.6735 27.6735 3 28.5 3H46.5C47.3265 3 48 3.6735 48 4.5V10.5C48 11.3265 47.3265 12 46.5 12H34.5C34.0275 12 33.5835 12.222 33.3 12.6L31.5 15V13.5C31.5 12.672 30.828 12 30 12H28.5C27.6735 12 27 11.3265 27 10.5V4.5Z" fill="white"/>
<path d="M45 6H30V9H45V6Z" fill="white"/>
<path d="M49.5 37.5H40.5V40.5H49.5V37.5Z" fill="white"/>
<path d="M39 31.5C36.519 31.5 34.5 33.519 34.5 36V42C34.5 44.481 36.519 46.5 39 46.5H51C53.481 46.5 55.5 44.481 55.5 42V40.9545L58.248 36.8325C58.5555 36.372 58.584 35.781 58.323 35.2935C58.062 34.8045 57.5535 34.5 57 34.5H55.2435C54.624 32.754 52.956 31.5 51 31.5H39ZM52.5 36C52.5 36.828 53.172 37.5 54 37.5H54.1965L52.752 39.6675C52.5885 39.9135 52.5 40.2045 52.5 40.5V42C52.5 42.8265 51.8265 43.5 51 43.5H39C38.1735 43.5 37.5 42.8265 37.5 42V36C37.5 35.1735 38.1735 34.5 39 34.5H51C51.8265 34.5 52.5 35.1735 52.5 36Z" fill="white"/>
<path d="M37.5 24H34.5V27H37.5V24Z" fill="white"/>
<path d="M43.5 24H40.5V27H43.5V24Z" fill="white"/>
<path d="M49.5 24H46.5V27H49.5V24Z" fill="white"/>
</svg>
