<svg width="84" height="84" viewBox="0 0 84 84" fill="none" xmlns="http://www.w3.org/2000/svg">
<path d="M72.8488 70C69.0688 70 68.6488 68.32 68.6488 67.48C73.9688 65.24 77.1888 59.92 77.0488 54.18C77.0488 53.9 77.0488 53.34 77.0488 53.2C77.0488 46.2 71.4488 40.6 64.4488 40.6H47.6488C46.8088 40.6 46.2488 41.16 46.2488 42C46.2488 45.22 47.5088 48.3 49.6088 50.54C49.3288 51.94 49.0488 53.2 49.0488 54.6C49.0488 60.2 52.4088 65.24 57.4488 67.48C57.4488 68.32 57.0288 70 53.2488 70C49.3288 70 46.2488 73.08 46.2488 77V84H49.0488V77C49.0488 74.62 50.8688 72.8 53.2488 72.8C57.5888 72.8 60.2488 70.7 60.2488 67.2V66.5C60.2488 65.94 59.8288 65.38 59.2688 65.24C54.7888 63.56 51.8488 59.36 51.8488 54.6C51.8488 53.9 51.8488 53.2 51.9888 52.64C53.9488 53.9 56.3288 54.6 58.8488 54.6H74.2488C74.2488 59.36 71.3088 63.56 66.8288 65.1C66.2688 65.24 65.8488 65.8 65.8488 66.36V67.2C65.8488 70.7 68.5088 72.8 72.8488 72.8C75.2288 72.8 77.0488 74.62 77.0488 77V84H79.8488V77C79.8488 73.08 76.7688 70 72.8488 70ZM58.8488 51.8C53.9488 51.8 49.8888 48.16 49.1888 43.4H64.4488C69.3488 43.4 73.4088 47.04 74.1088 51.8H58.8488Z" fill="white"/>
<path d="M83.9088 37.8V14C84.0488 10.92 81.5288 8.4 78.4488 8.4H50.4488V5.6C50.4488 2.52 47.9288 0 44.8488 0H5.64877C2.56877 0 0.0487671 2.52 0.0487671 5.6V36.4C0.0487671 42.28 2.14877 46.48 6.34877 49L7.74877 46.62C4.52877 44.52 2.84877 41.3 2.84877 36.4V5.6C2.84877 4.06 4.10877 2.8 5.64877 2.8H44.8488C46.3888 2.8 47.6488 4.06 47.6488 5.6V32.2C47.6488 33.74 46.3888 35 44.8488 35H19.9288C15.5888 35 11.8088 38.22 11.2488 42.56C11.2488 42.84 11.2488 43.12 11.2488 43.4H14.0488C14.0488 43.26 14.0488 42.98 14.0488 42.84C14.4688 39.9 16.9888 37.8 19.9288 37.8H44.8488C47.9288 37.8 50.4488 35.28 50.4488 32.2H67.2488C71.1688 32.2 74.2488 35.28 74.2488 39.2H77.0488C77.0488 33.74 72.7088 29.4 67.2488 29.4H50.4488V11.2H78.4488C79.9888 11.2 81.2488 12.46 81.2488 14V37.8C81.3888 40.74 80.5488 43.54 78.7288 45.92L80.8288 47.74C83.0688 44.94 84.1888 41.44 83.9088 37.8Z" fill="white"/>
<path d="M35.0488 71.4C32.8088 71.4 30.9888 69.72 30.8488 67.48C37.9888 64.4 41.2088 56.14 38.1288 49C35.0488 41.86 26.7888 38.64 19.6488 41.72C12.5088 44.8 9.28879 53.06 12.3688 60.2C13.7688 63.42 16.4288 66.08 19.6488 67.48C19.5088 69.72 17.6888 71.4 15.4488 71.4C11.5288 71.4 8.44879 74.48 8.44879 78.4V84H11.2488V78.4C11.2488 76.02 13.0688 74.2 15.4488 74.2C19.3688 74.2 22.4488 71.12 22.4488 67.2V66.5C22.4488 65.94 22.0288 65.38 21.4688 65.24C17.5488 63.84 14.6088 60.34 14.0488 56.14H18.2488C18.5288 56.14 18.8088 56 19.0888 55.86L22.4488 53.62L25.8088 55.86C26.0888 56 26.3688 56.14 26.6488 56.14H36.3088C35.7488 60.34 32.9488 63.84 28.8888 65.24C28.3288 65.38 27.9088 65.94 27.9088 66.5V67.2C27.9088 71.12 30.9888 74.2 34.9088 74.2C37.2888 74.2 39.1088 76.02 39.1088 78.4V84H41.9088V78.4C42.0488 74.48 38.9688 71.4 35.0488 71.4ZM27.0688 53.2L23.2888 50.68C22.8688 50.4 22.1688 50.4 21.7488 50.68L17.8288 53.2H14.1888C14.8888 47.04 20.4888 42.7 26.6488 43.54C31.6888 44.24 35.7488 48.16 36.3088 53.2H27.0688Z" fill="white"/>
<path d="M36.4488 7H7.04877V9.8H36.4488V7Z" fill="white"/>
<path d="M15.4488 12.6H7.04877V15.4H15.4488V12.6Z" fill="white"/>
<path d="M39.2488 12.6H18.2488V15.4H39.2488V12.6Z" fill="white"/>
<path d="M9.84877 18.2H7.04877V21H9.84877V18.2Z" fill="white"/>
<path d="M23.8488 18.2H12.6488V21H23.8488V18.2Z" fill="white"/>
<path d="M39.2488 18.2H26.6488V21H39.2488V18.2Z" fill="white"/>
<path d="M78.4488 16.8H58.8488V19.6H78.4488V16.8Z" fill="white"/>
<path d="M63.0488 22.4H53.2488V25.2H63.0488V22.4Z" fill="white"/>
<path d="M78.4488 22.4H65.8488V25.2H78.4488V22.4Z" fill="white"/>
<path d="M56.0488 16.8H53.2488V19.6H56.0488V16.8Z" fill="white"/>
</svg>
