<svg width="15" height="15" viewBox="0 0 15 15" fill="none" xmlns="http://www.w3.org/2000/svg">
<path fill-rule="evenodd" clip-rule="evenodd" d="M6.875 2.5C4.45875 2.5 2.5 4.45875 2.5 6.875C2.5 9.29125 4.45875 11.25 6.875 11.25C9.29125 11.25 11.25 9.29125 11.25 6.875C11.25 4.45875 9.29125 2.5 6.875 2.5ZM1.25 6.875C1.25 3.7684 3.7684 1.25 6.875 1.25C9.9816 1.25 12.5 3.7684 12.5 6.875C12.5 9.9816 9.9816 12.5 6.875 12.5C3.7684 12.5 1.25 9.9816 1.25 6.875Z" fill="white"/>
<path fill-rule="evenodd" clip-rule="evenodd" d="M9.96431 9.96431C10.2084 9.72023 10.6041 9.72023 10.8482 9.96431L13.5669 12.6831C13.811 12.9271 13.811 13.3229 13.5669 13.5669C13.3229 13.811 12.9271 13.811 12.6831 13.5669L9.96431 10.8482C9.72023 10.6041 9.72023 10.2084 9.96431 9.96431Z" fill="white"/>
</svg>
