<svg xmlns="http://www.w3.org/2000/svg" viewBox="0 0 590 65">
  <style>
    .do-logo_orange {
      fill: #f05a28;
    }

    .do-logo_black {
      fill: #231f20;
    }

    .do-logo_carrot {
      fill: #d95648;
    }
  </style>
  <path class="do-logo_orange" d="M77.23,32.53a21.78,21.78,0,0,0-6.6-16A21.52,21.52,0,0,0,54.8,10H46.65v45H54.8a21.45,21.45,0,0,0,15.83-6.62A21.74,21.74,0,0,0,77.23,32.53Z"/>
  <path d="M77.68,9.56A31,31,0,0,0,54.8,0H19.67A4.66,4.66,0,0,0,15,4.65h0A4.66,4.66,0,0,0,19.67,9.3H29v0h2.14A4.65,4.65,0,0,1,35.8,14h0a4.65,4.65,0,0,1-4.62,4.64H17.37a2.85,2.85,0,0,1-.29,0H15.46a4.65,4.65,0,0,0,0,9.29H16.9c.13,0,.25,0,.37,0H31.08a4.65,4.65,0,0,1,0,9.29H4.62a4.65,4.65,0,0,0,0,9.29H31.14a4.64,4.64,0,0,1,0,9.28h-11a4.65,4.65,0,0,0,0,9.29H54.8a31.13,31.13,0,0,0,22.88-9.5,31.36,31.36,0,0,0,9.46-23h0A31.27,31.27,0,0,0,77.68,9.56Zm-31,45.49V10H54.8a21.52,21.52,0,0,1,15.83,6.57,21.78,21.78,0,0,1,6.6,16,21.74,21.74,0,0,1-6.6,15.9A21.45,21.45,0,0,1,54.8,55.05Z"/>
  <ellipse cx="68.7" cy="21" rx="2.34" ry="2.35"/>
  <ellipse cx="65.73" cy="24.77" rx="1.41" ry="1.41"/>
  <circle cx="64.43" cy="20.48" r="0.75"/>
  <path class="do-logo_black" d="M132,7.59a23.79,23.79,0,0,1,17.54,7.32,24,24,0,0,1,7.29,17.61h0a24,24,0,0,1-7.26,17.61A23.87,23.87,0,0,1,132,57.41h-17V7.59Zm-9.31,7.66V49.78H132a16.44,16.44,0,0,0,12.14-5.07,16.68,16.68,0,0,0,5.06-12.19,16.72,16.72,0,0,0-5.06-12.23,16.49,16.49,0,0,0-12.14-5Z"/>
  <path class="do-logo_black" d="M238.09,7.59h7.55L223.09,57.41,200.55,7.59h7.58l13.08,28.62a40.56,40.56,0,0,1,1.88,5.07A42.21,42.21,0,0,1,225,36.21Z"/>
  <path class="do-logo_black" d="M290.72,11.89a22.79,22.79,0,0,1,8.14,10.55,27.45,27.45,0,0,1,0,20.12,23,23,0,0,1-8.14,10.55,26.55,26.55,0,0,1-29,0,23,23,0,0,1-8.13-10.55,27.45,27.45,0,0,1,0-20.12,22.77,22.77,0,0,1,8.13-10.55,26.55,26.55,0,0,1,29,0Zm-4.32,6a19,19,0,0,0-20.33,0,15.74,15.74,0,0,0-5.7,7.28A19.9,19.9,0,0,0,259,32.5a19.66,19.66,0,0,0,1.35,7.31,15.79,15.79,0,0,0,5.7,7.28,18.83,18.83,0,0,0,20.33,0,15.79,15.79,0,0,0,5.7-7.28,19.66,19.66,0,0,0,1.35-7.31,19.9,19.9,0,0,0-1.35-7.34A15.74,15.74,0,0,0,286.4,17.88Z"/>
  <path class="do-logo_black" d="M314.41,19.66l-5-5.36a24.61,24.61,0,0,1,17-6.71,23.79,23.79,0,0,1,17.53,7.28,24.05,24.05,0,0,1,7.29,17.63,24,24,0,0,1-7.29,17.6,23.74,23.74,0,0,1-17.53,7.31,24.66,24.66,0,0,1-9.12-1.72,24.2,24.2,0,0,1-7.85-5l5-5.32a16.7,16.7,0,0,0,5.57,3.5,17.05,17.05,0,0,0,6.42,1.23,16.75,16.75,0,0,0,12.36-5.16A16.88,16.88,0,0,0,343.9,32.5a17,17,0,0,0-5.14-12.44,16.8,16.8,0,0,0-12.36-5.13A17.63,17.63,0,0,0,320,16.12,17.29,17.29,0,0,0,314.41,19.66Z"/>
  <path class="do-logo_black" d="M378.81,15.25V57.41h-7.63V15.25H356.56V7.59h36.86v7.66Z"/>
  <path class="do-logo_black" d="M440.25,11.89a22.79,22.79,0,0,1,8.14,10.55,27.45,27.45,0,0,1,0,20.12,23,23,0,0,1-8.14,10.55,26.53,26.53,0,0,1-29,0,22.93,22.93,0,0,1-8.14-10.55,27.45,27.45,0,0,1,0-20.12,22.72,22.72,0,0,1,8.14-10.55,26.53,26.53,0,0,1,29,0Zm-4.32,6a19,19,0,0,0-20.33,0,15.74,15.74,0,0,0-5.7,7.28,19.9,19.9,0,0,0-1.35,7.34,19.66,19.66,0,0,0,1.35,7.31,15.79,15.79,0,0,0,5.7,7.28,18.83,18.83,0,0,0,20.33,0,15.79,15.79,0,0,0,5.7-7.28A19.66,19.66,0,0,0,443,32.5a19.9,19.9,0,0,0-1.35-7.34A15.74,15.74,0,0,0,435.93,17.88Z"/>
  <path class="do-logo_black" d="M458.78,57.41V7.59h17.71q8.33,0,13.79,4.8a16.19,16.19,0,0,1,5.61,12.74,18.8,18.8,0,0,1-5.68,13.78,18.71,18.71,0,0,1-13.72,5.66H466.42V57.41Zm7.64-42.19V36.94h10.07a11.31,11.31,0,0,0,8.33-3.46,11.59,11.59,0,0,0,3.47-8.35h0a8.88,8.88,0,0,0-2.95-7,12.89,12.89,0,0,0-8.81-2.9v0Z"/>
  <path class="do-logo_black" d="M546.12,7.59V35.53h0A21.13,21.13,0,0,1,539.76,51,21.69,21.69,0,0,1,509,51a21.13,21.13,0,0,1-6.39-15.46V7.59h7.51V35.53a13.74,13.74,0,0,0,4.2,10.12,14.16,14.16,0,0,0,20.17,0,13.74,13.74,0,0,0,4.2-10.12V7.59Z"/>
  <path class="do-logo_black" d="M562.06,43.35q0,4.36,5.63,6.06a16.92,16.92,0,0,0,9.36,0q5.64-1.69,5.64-6.06,0-3-3.5-4.83A39.8,39.8,0,0,0,571.51,36Q563.11,34,560,31.94q-5.24-3.45-5.24-10.29a12.31,12.31,0,0,1,3.13-8.47,16.5,16.5,0,0,1,7.75-4.63,24.25,24.25,0,0,1,13.51,0,16.27,16.27,0,0,1,7.71,4.63A12.19,12.19,0,0,1,590,21.65h-7.31q0-4.37-5.64-6.09a17.7,17.7,0,0,0-9.36,0q-5.62,1.72-5.63,6.09c0,2,1.16,3.61,3.49,4.83a38,38,0,0,0,7.68,2.45q8.37,2,11.53,4.13Q590,36.46,590,43.35a12.16,12.16,0,0,1-3.16,8.44,16.47,16.47,0,0,1-7.71,4.66,24.25,24.25,0,0,1-13.51,0,16.71,16.71,0,0,1-7.75-4.66,12.27,12.27,0,0,1-3.13-8.44Z"/>
  <path class="do-logo_carrot" d="M178.65,15.25h12.94a3.82,3.82,0,0,0,3.82-3.83h0a3.82,3.82,0,0,0-3.82-3.83H165.93a3.82,3.82,0,0,0-3.81,3.83h0a3.83,3.83,0,0,0,3.81,3.83Z"/>
  <path class="do-logo_carrot" d="M162.12,32.73h0a3.83,3.83,0,0,0,3.82,3.83h25.61a3.83,3.83,0,0,0,3.82-3.83h0a3.83,3.83,0,0,0-3.82-3.84H165.94A3.83,3.83,0,0,0,162.12,32.73Z"/>
  <path class="do-logo_carrot" d="M165.92,57.41h25.69a3.81,3.81,0,0,0,3.8-3.81h0a3.81,3.81,0,0,0-3.8-3.82H165.92a3.81,3.81,0,0,0-3.8,3.82h0A3.81,3.81,0,0,0,165.92,57.41Z"/>
</svg>
