<svg xmlns="http://www.w3.org/2000/svg" viewBox="0 0 31 31">
  <path fill="#303233" d="M27,7.53,19.78.27A.91.91,0,0,0,19.13,0H6.42A2.73,2.73,0,0,0,3.69,2.72V28.28A2.73,2.73,0,0,0,6.42,31H24.58a2.73,2.73,0,0,0,2.73-2.72V8.17A.92.92,0,0,0,27,7.53ZM20,3.1l4.17,4.17H21A.91.91,0,0,1,20,6.36Zm5.45,25.18a.9.9,0,0,1-.91.9H6.42a.9.9,0,0,1-.91-.9V2.72a.9.9,0,0,1,.91-.9h11.8V6.36A2.73,2.73,0,0,0,21,9.08h4.54ZM21,14.65a.91.91,0,1,1,0,1.82H11.87a.91.91,0,1,1,0-1.82Zm.91,4.54a.91.91,0,0,1-.91.91H11.87a.91.91,0,1,1,0-1.81H21A.9.9,0,0,1,21.86,19.19Zm0,3.64a.9.9,0,0,1-.91.9H11.87a.91.91,0,1,1,0-1.81H21A.91.91,0,0,1,21.86,22.83ZM9.14,15.56a.91.91,0,1,1-.91-.91A.91.91,0,0,1,9.14,15.56Zm0,3.63a.91.91,0,1,1-1.81,0,.91.91,0,0,1,1.81,0Zm0,3.64a.91.91,0,1,1-.91-.91A.9.9,0,0,1,9.14,22.83Z"/>
</svg>
