<svg xmlns="http://www.w3.org/2000/svg" viewBox="0 0 31 31">
  <path fill="#3a93e6" d="M5.17,5.17a1.28,1.28,0,0,0-.92.38,1.3,1.3,0,0,0-.38.91V24.54a1.34,1.34,0,0,0,.38.92,1.31,1.31,0,0,0,.92.37H25.83a1.31,1.31,0,0,0,.92-.37,1.33,1.33,0,0,0,.37-.92V10.33a1.29,1.29,0,0,0-.37-.91A1.32,1.32,0,0,0,25.83,9H14.21a1.3,1.3,0,0,1-1.08-.57l-2.2-3.3ZM2.43,3.72A3.85,3.85,0,0,1,5.17,2.58h6.45a1.29,1.29,0,0,1,1.08.58l2.2,3.3H25.83a3.88,3.88,0,0,1,3.88,3.87V24.54a3.89,3.89,0,0,1-3.88,3.88H5.17a3.89,3.89,0,0,1-3.88-3.88V6.46A3.87,3.87,0,0,1,2.43,3.72Z"/>
</svg>
