<svg xmlns="http://www.w3.org/2000/svg" viewBox="0 0 25 20">
  <defs>
    <style>
      .icon-checkmark {
        fill: #cc172b;
        stroke: #ffffff;
        stroke-width: 1px;
      }
    </style>
  </defs>
  <path class="icon-checkmark" d="M2.12,7.33a1.38,1.38,0,0,1,.74.24C3.44,8,4,8.34,4.58,8.76c1.2.9,2.39,1.82,3.6,2.72A6,6,0,0,0,9,12c.29.17.38.15.64-.07L20,2.81c.79-.69,1.61-1.36,2.41-2.06a1,1,0,0,1,.86-.27A1.33,1.33,0,0,1,24,.79a1.49,1.49,0,0,1,.37.55,1,1,0,0,1,0,.76,10.72,10.72,0,0,1-1.25,1.75Q19.92,7.95,16.64,12c-1.41,1.74-2.84,3.46-4.27,5.18a14.89,14.89,0,0,1-1.82,1.9c-.11.09-.24.17-.36.25a1.25,1.25,0,0,1-1,.14,2.82,2.82,0,0,1-1.56-1.06c-.92-1.09-1.83-2.19-2.72-3.32-1.17-1.47-2.32-2.95-3.47-4.44-.25-.33-.47-.68-.7-1a1.45,1.45,0,0,1,.71-2.17A1.43,1.43,0,0,1,2.12,7.33Z" transform="translate(0 0)"/>
</svg>
