<svg xmlns="http://www.w3.org/2000/svg" viewBox="0 0 31 31">
  <path fill="#f2994a" d="M30.39,4.68A.61.61,0,0,0,31,4.07V2.65A2.12,2.12,0,0,0,28.88.53H2.12A2.12,2.12,0,0,0,0,2.65V4.07a.61.61,0,0,0,.61.61h.77V21H.61a.6.6,0,0,0-.61.6v1.06a2.12,2.12,0,0,0,2.12,2.12H14.89v.88a2.47,2.47,0,1,0,1.22,0v-.88H28.88A2.12,2.12,0,0,0,31,22.61V21.55a.6.6,0,0,0-.61-.6H29.31V4.68ZM16.76,28a1.26,1.26,0,1,1-1.26-1.26A1.27,1.27,0,0,1,16.76,28Zm13-5.84v.45a.91.91,0,0,1-.91.91H2.12a.91.91,0,0,1-.91-.91v-.45ZM2.59,21V4.68H28.1V21ZM1.21,3.47V2.65a.91.91,0,0,1,.91-.91H28.88a.91.91,0,0,1,.91.91v.82ZM18.45,6.91h-3.2a.61.61,0,0,0-.61.61V9H12.05a.61.61,0,0,0-.61.61V11H8.85a.6.6,0,0,0-.61.6V13H5.65a.61.61,0,0,0-.61.61V18a.6.6,0,0,0,.61.6h12.8a.6.6,0,0,0,.6-.6V7.52A.6.6,0,0,0,18.45,6.91ZM8.24,17.38h-2V14.25h2Zm3.2,0h-2V12.21h2Zm3.2,0h-2V10.17h2Zm3.2,0h-2V8.12h2ZM26,18a.6.6,0,0,1-.61.6H21.88a.61.61,0,1,1,0-1.21h3.47A.61.61,0,0,1,26,18Zm0-2.56a.61.61,0,0,1-.61.61H21.88a.61.61,0,1,1,0-1.21h3.47A.6.6,0,0,1,26,15.45Z"/>
</svg>
