<svg xmlns="http://www.w3.org/2000/svg" viewBox="0 0 31 31">
  <path fill="#10c25c" d="M27,7.53,19.78.27A.91.91,0,0,0,19.13,0H6.42A2.73,2.73,0,0,0,3.69,2.72V28.28A2.73,2.73,0,0,0,6.42,31H24.58a2.73,2.73,0,0,0,2.73-2.72V8.17A.93.93,0,0,0,27,7.53ZM20,3.1l4.17,4.17H21A.91.91,0,0,1,20,6.36Zm5.45,25.18a.9.9,0,0,1-.91.9H6.42a.9.9,0,0,1-.91-.9V2.72a.9.9,0,0,1,.91-.9h11.8V6.36A2.73,2.73,0,0,0,21,9.08h4.54ZM10.05,12.84a.9.9,0,0,0-.91.9v10.9a.91.91,0,0,0,.91.91H21a.91.91,0,0,0,.91-.91V13.74a.9.9,0,0,0-.91-.9Zm4.54,10.89H11V21.92h3.63Zm0-3.63H11V18.29h3.63Zm0-3.63H11V14.65h3.63ZM20,23.73H16.41V21.92H20Zm0-3.63H16.41V18.29H20Zm0-3.63H16.41V14.65H20Z"/>
</svg>
