<svg xmlns="http://www.w3.org/2000/svg" viewBox="0 0 31 31">
  <path fill="#8b35cf" d="M27,0H4A4,4,0,0,0,0,4V27a4,4,0,0,0,4,4H27a4,4,0,0,0,4-4V4A4,4,0,0,0,27,0ZM1.83,4A2.13,2.13,0,0,1,4,1.83H27A2.13,2.13,0,0,1,29.17,4V17l-4.34-5.36a2.44,2.44,0,0,0-1.75-.89,2.47,2.47,0,0,0-1.84.71l-8.35,8.37L9.76,17.19a2.41,2.41,0,0,0-3.11,0L1.83,21.31ZM29.17,27h0A2.13,2.13,0,0,1,27,29.17H4A2.13,2.13,0,0,1,1.83,27V23.71l6-5.12a.6.6,0,0,1,.76,0l3.76,3.13a.92.92,0,0,0,1.23-.06l8.94-9a.58.58,0,0,1,.45-.17.56.56,0,0,1,.43.22l5.76,7.09Zm-15-18.82a4.4,4.4,0,1,0-4.4,4.4A4.41,4.41,0,0,0,14.16,8.22Zm-7,0a2.58,2.58,0,1,1,2.58,2.57A2.59,2.59,0,0,1,7.18,8.22Z"/>
</svg>
