<svg id="ricoh-logo" xmlns="http://www.w3.org/2000/svg" viewBox="0 0 142.39 48.62">
  <style>
    .ricoh-logo__name {
      fill: #da1745;
    }

    .ricoh-logo__slogan {
      fill: #656263;
    }
  </style>
  <path id="ricoh-name" class="ricoh-logo__name" d="M71,19.29l2.26,3a21.3,21.3,0,0,1-10.7,2.48C53,24.79,46,20.23,46,12.49h0C46,4.76,53,.2,62.59.2a23.81,23.81,0,0,1,10.47,2l-2.3,3.48a14.22,14.22,0,0,0-7.12-1.55c-6,0-9.61,3.54-9.61,8.33h0c0,4.79,3.6,8.33,9.61,8.33A17,17,0,0,0,71,19.29Zm35.56-6.8c0,7.74-6.7,12.3-16,12.3s-16-4.56-16-12.3S81.33.19,90.61.19,106.59,4.75,106.59,12.49Zm-8,0C98.54,7.8,95.71,4,90.61,4s-7.92,3.79-7.92,8.48S85.5,21,90.61,21,98.54,17.18,98.54,12.49ZM130.71.81V9.72H119V.81h-7.65V24.16H119V14.27h11.72v9.89h7.67V.81ZM33.25,24.16h8.08V.81H33.25ZM18.11,14c4.17-.17,8.82-1.83,8.82-6.56,0-6.06-6.57-7.18-13.21-7.18C8.3.26,3.3.51.31.75V24.16H7.85V4.28A47.6,47.6,0,0,1,13.76,4c3.88,0,5.85,1.26,5.85,3.47,0,1.89-.82,4.15-9.53,4.06v2.24A59.6,59.6,0,0,1,20.59,24.16h9.05A58.08,58.08,0,0,0,18.11,14Z" transform="translate(-0.31 -0.19)"/>
  <path id="ricoh-slogan" class="ricoh-logo__slogan" d="M.91,35H2.84V44.5H.91Zm0-2H2.84V31.17H.91Zm15.28,1.77a3.22,3.22,0,0,0-3,1.94,2.77,2.77,0,0,0-2.82-1.94,3.14,3.14,0,0,0-2.94,1.82L7.41,35H5.6c.07.73.09,1.47.09,2.19V44.5H7.62V39.31c0-1.47.58-3,2.16-3,1.35,0,1.72.95,1.72,2.12V44.5h1.93V39.31c0-1.47.55-3,2.14-3,1.35,0,1.71.95,1.71,2.12V44.5h1.95V38.16C19.23,36.19,18.28,34.79,16.19,34.79Zm90,7.59a16.89,16.89,0,0,0,.11,2.12h-1.89L104.3,43c-1.38,2.54-6.23,2.27-6.23-1,0-2.47,2.4-3.49,6.17-3.31,0,0,.21-1.79-1-2.34a5,5,0,0,0-4,.55l-.12-1.46c2.25-.92,7-1.49,7,2.92Zm-1.9-2.55s-4.37-.35-4.26,2.05c.07,1.4,1.44,1.66,2.49,1.41C103.89,43,104.3,41.55,104.24,39.83Zm-75,2.55a16.89,16.89,0,0,0,.11,2.12H27.45L27.39,43c-1.38,2.54-6.23,2.27-6.23-1,0-2.47,2.4-3.49,6.17-3.31,0,0,.21-1.79-1-2.34a5,5,0,0,0-4,.55l-.12-1.46c2.25-.92,7.05-1.49,7.05,2.92Zm-1.9-2.55s-4.37-.35-4.26,2.05c.07,1.4,1.44,1.66,2.49,1.41C27,43,27.39,41.55,27.33,39.83ZM126,35h1.85v9c0,5.3-4.78,5.34-8.06,4.34l.12-1.62a6.2,6.2,0,0,0,2.87.69c3.34,0,3.14-2.79,3.14-4.53a3.63,3.63,0,0,1-3,1.66c-2.81,0-3.91-2.42-3.91-4.8,0-2.53,1.1-4.92,4-4.92a3.21,3.21,0,0,1,3,1.78Zm0,4.74c0-1.53-.58-3.47-2.45-3.47s-2.43,1.87-2.43,3.47.47,3.31,2.41,3.31S125.93,41.16,125.93,39.72ZM38.26,35h1.85v9c0,5.3-4.78,5.34-8.07,4.34l.12-1.62a6.23,6.23,0,0,0,2.87.69c3.34,0,3.15-2.79,3.15-4.53a3.65,3.65,0,0,1-3,1.66c-2.82,0-3.92-2.42-3.92-4.8,0-2.53,1.1-4.92,4-4.92a3.21,3.21,0,0,1,3,1.78Zm0,4.74c0-1.53-.57-3.47-2.44-3.47s-2.43,1.87-2.43,3.47S33.82,43,35.77,43,38.23,41.16,38.23,39.72ZM43,44.5h1.93V35H43ZM43,33h1.93V31.17H43Zm95.3,7.21h-6.41C132,43.56,135,44,137.64,42.7l.12,1.49c-3.88,1.24-7.89.51-7.89-4.49,0-2.61,1.68-4.91,4.36-4.91C138.77,34.79,138.26,40.23,138.26,40.23Zm-1.85-1.18c0-1.35-.52-2.95-2.16-2.95s-2.42,1.73-2.42,2.95Zm-70,1.18H60c.11,3.33,3.12,3.74,5.79,2.47l.12,1.49C62,45.43,58,44.7,58,39.7c0-2.61,1.68-4.91,4.37-4.91C66.9,34.79,66.39,40.23,66.39,40.23Zm-1.86-1.18c0-1.35-.51-2.95-2.16-2.95S60,37.83,60,39.05Zm4.23,5.44h2.07v-2H68.76Zm16.68-7.78.11-1.52c-3.68-1.22-7.91.18-7.91,4.51,0,4.86,4.86,5.65,7.91,4.62l-.1-1.5c-2.58,1.12-5.73.18-5.73-3.12S83,35.59,85.44,36.71Zm7.38-1.92a3.14,3.14,0,0,0-3,1.77V31.17H87.9V44.49h1.93v-5c0-1.48.58-3.24,2.35-3.24s1.92,1.25,1.92,2.61v5.61H96v-6C96,36.31,95.13,34.79,92.82,34.79Zm20.84,0a3.35,3.35,0,0,0-3.12,1.82L110.48,35h-1.82a20.18,20.18,0,0,1,.1,2.19V44.5h1.93V39.39c0-1.51.56-3.12,2.35-3.12S115,37.55,115,38.88V44.5h2v-6C116.9,36.29,116.05,34.79,113.66,34.79Zm-61,0a3.37,3.37,0,0,0-3.13,1.82L49.51,35H47.69a20.18,20.18,0,0,1,.1,2.19V44.5h1.93V39.39c0-1.51.56-3.12,2.35-3.12S54,37.55,54,38.88V44.5h2v-6C55.93,36.29,55.08,34.79,52.69,34.79Zm87.94,7.74v2h2.06v-2Z" transform="translate(-0.31 -0.19)"/>
</svg>
